<?xml version="1.0" encoding="UTF-8"?>
<svg xmlns="http://www.w3.org/2000/svg" xmlns:xlink="http://www.w3.org/1999/xlink" viewBox="0 0 40 40" width="40px" height="40px">
<g id="surface20204856">
<path style=" stroke:none;fill-rule:nonzero;fill:rgb(96.078432%,96.078432%,96.078432%);fill-opacity:1;" d="M 20 37 C 10.609375 37 3 29.390625 3 20 C 3 10.609375 10.609375 3 20 3 C 29.390625 3 37 10.609375 37 20 C 37 29.390625 29.390625 37 20 37 Z M 20 37 "/>
<path style=" stroke:none;fill-rule:nonzero;fill:rgb(36.470589%,25.098041%,21.568628%);fill-opacity:1;" d="M 21.863281 13.917969 C 21.863281 14.96875 21.058594 15.773438 20.007812 15.773438 C 18.953125 15.773438 18.148438 14.96875 18.148438 13.917969 L 16.910156 12.679688 C 16.910156 11.628906 18.953125 10.203125 20.007812 10.203125 C 21.058594 10.203125 23.101562 11.628906 23.101562 12.679688 Z M 21.863281 13.917969 "/>
<path style=" stroke:none;fill-rule:nonzero;fill:rgb(36.470589%,25.098041%,21.568628%);fill-opacity:1;" d="M 30.527344 23.203125 C 30.464844 23.203125 30.40625 23.203125 30.34375 23.140625 L 26.257812 21.777344 L 25.578125 17.753906 C 25.515625 17.445312 25.761719 17.074219 26.070312 17.011719 C 26.382812 16.949219 26.753906 17.199219 26.816406 17.507812 L 27.371094 20.851562 L 30.714844 21.964844 C 31.023438 22.085938 31.210938 22.398438 31.085938 22.769531 C 31.023438 23.015625 30.777344 23.203125 30.527344 23.203125 Z M 30.527344 31.246094 C 30.40625 31.246094 30.34375 31.246094 30.28125 31.1875 L 27.558594 29.824219 L 26.257812 25.863281 C 26.132812 25.554688 26.320312 25.183594 26.628906 25.058594 C 26.9375 24.933594 27.308594 25.121094 27.433594 25.429688 L 28.609375 28.894531 L 30.839844 30.011719 C 31.148438 30.132812 31.269531 30.503906 31.085938 30.816406 C 30.960938 31.125 30.777344 31.246094 30.527344 31.246094 Z M 9.484375 23.203125 C 9.238281 23.203125 8.988281 23.015625 8.929688 22.769531 C 8.804688 22.460938 8.988281 22.085938 9.300781 21.964844 L 12.640625 20.851562 L 13.199219 17.507812 C 13.261719 17.199219 13.570312 16.949219 13.941406 17.011719 C 14.25 17.074219 14.5 17.382812 14.4375 17.753906 L 13.753906 21.839844 L 9.671875 23.203125 C 9.609375 23.203125 9.546875 23.203125 9.484375 23.203125 Z M 9.484375 31.246094 C 9.238281 31.246094 9.050781 31.125 8.929688 30.875 C 8.804688 30.566406 8.929688 30.195312 9.175781 30.070312 L 11.402344 28.957031 L 12.578125 25.492188 C 12.703125 25.183594 13.011719 24.996094 13.382812 25.121094 C 13.695312 25.246094 13.878906 25.554688 13.753906 25.925781 L 12.457031 29.886719 L 9.734375 31.246094 C 9.671875 31.246094 9.609375 31.246094 9.484375 31.246094 Z M 9.484375 31.246094 "/>
<path style=" stroke:none;fill-rule:nonzero;fill:rgb(36.470589%,25.098041%,21.568628%);fill-opacity:1;" d="M 28.425781 17.011719 L 20.007812 17.011719 C 19.636719 17.011719 19.386719 16.765625 19.386719 16.394531 C 19.386719 16.023438 19.636719 15.773438 20.007812 15.773438 L 27.679688 15.773438 L 29.351562 12.988281 C 29.539062 12.679688 29.910156 12.617188 30.21875 12.804688 C 30.527344 12.988281 30.589844 13.359375 30.40625 13.671875 Z M 28.425781 17.011719 "/>
<path style=" stroke:none;fill-rule:nonzero;fill:rgb(36.470589%,25.098041%,21.568628%);fill-opacity:1;" d="M 20.007812 17.011719 L 11.589844 17.011719 L 9.546875 13.605469 C 9.421875 13.296875 9.484375 12.925781 9.792969 12.738281 C 10.105469 12.617188 10.476562 12.679688 10.660156 12.988281 L 12.332031 15.773438 L 20.007812 15.773438 C 20.378906 15.773438 20.625 16.019531 20.625 16.390625 C 20.625 16.761719 20.378906 17.011719 20.007812 17.011719 Z M 19.386719 12.0625 C 19.203125 12.0625 19.078125 12 18.953125 11.875 C 18.894531 11.8125 17.839844 10.824219 15.675781 10.824219 C 15.304688 10.824219 15.054688 10.574219 15.054688 10.203125 C 15.054688 9.832031 15.304688 9.585938 15.675781 9.585938 C 18.398438 9.585938 19.757812 10.945312 19.820312 11.007812 C 20.070312 11.257812 20.070312 11.628906 19.820312 11.875 C 19.695312 12 19.574219 12.0625 19.386719 12.0625 Z M 19.386719 12.0625 "/>
<path style=" stroke:none;fill-rule:nonzero;fill:rgb(36.470589%,25.098041%,21.568628%);fill-opacity:1;" d="M 20.625 12.0625 C 20.441406 12.0625 20.316406 12 20.191406 11.875 C 19.945312 11.628906 19.945312 11.257812 20.191406 11.007812 C 20.253906 10.945312 21.617188 9.585938 24.339844 9.585938 C 24.710938 9.585938 24.957031 9.832031 24.957031 10.203125 C 24.957031 10.574219 24.710938 10.824219 24.339844 10.824219 C 22.171875 10.824219 21.121094 11.8125 21.058594 11.875 C 20.933594 12 20.8125 12.0625 20.625 12.0625 Z M 20.625 12.0625 "/>
<path style=" stroke:none;fill-rule:nonzero;fill:rgb(71.764708%,10.980392%,10.980392%);fill-opacity:1;" d="M 19.386719 17.632812 L 20.625 17.632812 L 20.625 31.246094 L 19.386719 31.246094 Z M 19.386719 17.632812 "/>
<path style=" stroke:none;fill-rule:nonzero;fill:rgb(100%,23.921569%,0%);fill-opacity:1;" d="M 14.4375 15.773438 C 12.949219 17.261719 11.960938 19.363281 11.960938 21.964844 C 11.960938 27.410156 16.726562 31.246094 19.386719 31.246094 L 20.007812 17.011719 L 20.625 31.246094 C 23.285156 31.246094 28.054688 27.410156 28.054688 21.964844 C 28.054688 19.363281 27.0625 17.261719 25.578125 15.773438 L 23.101562 15.773438 L 20.007812 16.394531 L 16.910156 15.773438 Z M 14.4375 15.773438 "/>
<path style=" stroke:none;fill-rule:nonzero;fill:rgb(24.313726%,15.294118%,13.725491%);fill-opacity:1;" d="M 20.007812 18.871094 C 21.738281 18.871094 23.101562 17.507812 23.101562 15.773438 L 16.910156 15.773438 C 16.910156 17.507812 18.273438 18.871094 20.007812 18.871094 Z M 20.007812 18.871094 "/>
<path style=" stroke:none;fill-rule:nonzero;fill:rgb(24.313726%,15.294118%,13.725491%);fill-opacity:1;" d="M 24.957031 22.890625 C 24.957031 23.746094 24.265625 24.441406 23.410156 24.441406 C 22.554688 24.441406 21.863281 23.746094 21.863281 22.890625 C 21.863281 22.039062 22.554688 21.34375 23.410156 21.34375 C 24.265625 21.34375 24.957031 22.039062 24.957031 22.890625 Z M 24.957031 22.890625 "/>
<path style=" stroke:none;fill-rule:nonzero;fill:rgb(24.313726%,15.294118%,13.725491%);fill-opacity:1;" d="M 18.148438 22.890625 C 18.148438 23.746094 17.457031 24.441406 16.601562 24.441406 C 15.746094 24.441406 15.054688 23.746094 15.054688 22.890625 C 15.054688 22.039062 15.746094 21.34375 16.601562 21.34375 C 17.457031 21.34375 18.148438 22.039062 18.148438 22.890625 Z M 18.148438 22.890625 "/>
<path style=" stroke:none;fill-rule:nonzero;fill:rgb(24.313726%,15.294118%,13.725491%);fill-opacity:1;" d="M 13.382812 19.117188 C 13.074219 19.734375 13.136719 20.417969 13.632812 20.664062 C 14.066406 20.910156 14.683594 20.601562 15.054688 19.984375 C 15.363281 19.363281 15.304688 18.683594 14.808594 18.4375 C 14.3125 18.1875 13.695312 18.496094 13.382812 19.117188 Z M 13.382812 19.117188 "/>
<path style=" stroke:none;fill-rule:nonzero;fill:rgb(24.313726%,15.294118%,13.725491%);fill-opacity:1;" d="M 26.753906 19.117188 C 26.445312 18.496094 25.824219 18.25 25.328125 18.4375 C 24.835938 18.621094 24.773438 19.363281 25.082031 19.984375 C 25.390625 20.601562 26.011719 20.851562 26.503906 20.664062 C 27 20.417969 27.125 19.734375 26.753906 19.117188 Z M 26.753906 19.117188 "/>
<path style=" stroke:none;fill-rule:nonzero;fill:rgb(24.313726%,15.294118%,13.725491%);fill-opacity:1;" d="M 23.347656 28.523438 C 23.71875 28.894531 24.402344 28.773438 24.894531 28.277344 C 25.390625 27.78125 25.453125 27.101562 25.144531 26.730469 C 24.835938 26.359375 24.089844 26.480469 23.597656 26.976562 C 23.101562 27.472656 22.976562 28.214844 23.347656 28.523438 Z M 23.347656 28.523438 "/>
<path style=" stroke:none;fill-rule:nonzero;fill:rgb(24.313726%,15.294118%,13.725491%);fill-opacity:1;" d="M 17.035156 28.523438 C 17.40625 28.152344 17.285156 27.472656 16.789062 26.976562 C 16.292969 26.480469 15.613281 26.421875 15.242188 26.730469 C 14.871094 27.039062 14.992188 27.78125 15.488281 28.277344 C 15.984375 28.773438 16.664062 28.894531 17.035156 28.523438 Z M 17.035156 28.523438 "/>
<path style=" stroke:none;fill-rule:nonzero;fill:rgb(36.470589%,25.098041%,21.568628%);fill-opacity:1;" d="M 14.4375 15.773438 C 14.4375 15.773438 15.054688 13.917969 16.910156 12.679688 C 16.910156 12.679688 21.863281 12.679688 23.101562 12.679688 C 24.957031 13.917969 25.578125 15.773438 25.578125 15.773438 Z M 14.4375 15.773438 "/>
<path style=" stroke:none;fill-rule:nonzero;fill:rgb(63.137257%,53.333336%,49.803922%);fill-opacity:1;" d="M 22.484375 14.535156 L 24.933594 14.535156 C 24.542969 13.945312 23.953125 13.25 23.101562 12.679688 C 22.835938 12.679688 21.769531 12.679688 21.246094 12.679688 L 21.246094 13.300781 C 21.246094 13.984375 21.796875 14.535156 22.484375 14.535156 Z M 22.484375 14.535156 "/>
<path style=" stroke:none;fill-rule:nonzero;fill:rgb(63.137257%,53.333336%,49.803922%);fill-opacity:1;" d="M 15.078125 14.535156 L 17.53125 14.535156 C 18.214844 14.535156 18.769531 13.984375 18.769531 13.300781 L 18.769531 12.679688 C 18.039062 12.679688 16.910156 12.679688 16.910156 12.679688 C 16.058594 13.25 15.46875 13.945312 15.078125 14.535156 Z M 15.078125 14.535156 "/>
</g>
</svg>
