<?xml version="1.0" encoding="UTF-8"?>
<svg xmlns="http://www.w3.org/2000/svg" xmlns:xlink="http://www.w3.org/1999/xlink" viewBox="0 0 40 40" width="40px" height="40px">
<g id="surface20259106">
<path style=" stroke:none;fill-rule:nonzero;fill:rgb(94.901961%,94.901961%,94.901961%);fill-opacity:1;" d="M 20 37 C 10.609375 37 3 29.390625 3 20 C 3 10.609375 10.609375 3 20 3 C 29.390625 3 37 10.609375 37 20 C 37 29.390625 29.390625 37 20 37 Z M 20 37 "/>
<path style=" stroke:none;fill-rule:nonzero;fill:rgb(36.862746%,20.784314%,69.411767%);fill-opacity:1;" d="M 20 7.5 C 13.097656 7.5 7.5 13.097656 7.5 20 C 7.5 26.902344 13.097656 32.5 20 32.5 C 26.902344 32.5 32.5 26.902344 32.5 20 C 32.5 13.097656 26.902344 7.5 20 7.5 Z M 20 7.5 "/>
<path style=" stroke:none;fill-rule:nonzero;fill:rgb(19.215687%,10.588235%,57.254905%);fill-opacity:1;" d="M 20 7.5 C 15.910156 7.5 12.289062 9.472656 10.011719 12.511719 C 12.097656 10.941406 14.6875 10 17.5 10 C 24.402344 10 30 15.597656 30 22.5 C 30 25.3125 29.058594 27.902344 27.488281 29.988281 C 30.527344 27.710938 32.5 24.089844 32.5 20 C 32.5 13.097656 26.902344 7.5 20 7.5 Z M 20 7.5 "/>
<path style=" stroke:none;fill-rule:nonzero;fill:rgb(58.431375%,45.882353%,80.392158%);fill-opacity:1;" d="M 15.9375 12.1875 C 17.144531 12.1875 18.125 13.167969 18.125 14.375 C 18.125 15.582031 17.144531 16.5625 15.9375 16.5625 C 15.832031 16.5625 15.734375 16.546875 15.632812 16.53125 C 16 16.746094 16.417969 16.875 16.875 16.875 C 18.253906 16.875 19.375 15.753906 19.375 14.375 C 19.375 12.996094 18.253906 11.875 16.875 11.875 C 16.417969 11.875 16 12.003906 15.632812 12.21875 C 15.734375 12.203125 15.832031 12.1875 15.9375 12.1875 Z M 27.5 24.6875 C 27.5 25.328125 27.113281 25.875 26.5625 26.117188 C 26.753906 26.203125 26.964844 26.25 27.1875 26.25 C 28.050781 26.25 28.75 25.550781 28.75 24.6875 C 28.75 23.824219 28.050781 23.125 27.1875 23.125 C 26.964844 23.125 26.753906 23.171875 26.5625 23.257812 C 27.113281 23.5 27.5 24.046875 27.5 24.6875 Z M 12.5 21.5625 C 12.5 22.203125 12.113281 22.75 11.5625 22.992188 C 11.753906 23.078125 11.964844 23.125 12.1875 23.125 C 13.050781 23.125 13.75 22.425781 13.75 21.5625 C 13.75 20.699219 13.050781 20 12.1875 20 C 11.964844 20 11.753906 20.046875 11.5625 20.132812 C 12.113281 20.375 12.5 20.921875 12.5 21.5625 Z M 18.75 25.3125 C 18.75 26.300781 18.089844 27.128906 17.1875 27.398438 C 17.386719 27.457031 17.59375 27.5 17.8125 27.5 C 19.019531 27.5 20 26.519531 20 25.3125 C 20 24.105469 19.019531 23.125 17.8125 23.125 C 17.59375 23.125 17.386719 23.167969 17.1875 23.226562 C 18.089844 23.496094 18.75 24.324219 18.75 25.3125 Z M 18.75 25.3125 "/>
</g>
</svg>
