<?xml version="1.0" encoding="UTF-8"?>
<svg xmlns="http://www.w3.org/2000/svg" xmlns:xlink="http://www.w3.org/1999/xlink" viewBox="0 0 40 40" width="40px" height="40px">
<g id="surface20130236">
<path style=" stroke:none;fill-rule:nonzero;fill:rgb(96.078432%,96.078432%,96.078432%);fill-opacity:1;" d="M 20 36 C 11.164062 36 4 28.835938 4 20 C 4 11.164062 11.164062 4 20 4 C 28.835938 4 36 11.164062 36 20 C 36 28.835938 28.835938 36 20 36 Z M 20 36 "/>
<path style=" stroke:none;fill-rule:nonzero;fill:rgb(62.352943%,65.882355%,85.490197%);fill-opacity:1;" d="M 29.527344 18.949219 C 29.605469 19.199219 29.628906 19.453125 29.652344 19.71875 C 29.667969 19.980469 29.652344 20.246094 29.601562 20.515625 C 29.554688 20.777344 29.558594 21.101562 29.335938 21.308594 C 29.128906 21.511719 28.835938 21.675781 28.453125 21.621094 L 28.386719 21.539062 C 28.375 21.164062 28.398438 20.953125 28.445312 20.746094 C 28.484375 20.542969 28.691406 20.425781 28.808594 20.230469 C 29.03125 19.851562 29.253906 19.417969 29.421875 18.949219 Z M 28.898438 15.242188 C 28.894531 15.011719 28.894531 14.785156 28.867188 14.566406 C 28.84375 14.347656 28.8125 14.136719 28.773438 13.9375 C 28.730469 13.730469 28.582031 13.558594 28.625 13.367188 C 28.660156 13.171875 28.71875 12.972656 28.898438 12.652344 L 28.996094 12.609375 C 29.355469 12.703125 29.546875 12.9375 29.660156 13.179688 C 29.785156 13.433594 29.667969 13.710938 29.617188 13.953125 C 29.566406 14.203125 29.488281 14.441406 29.382812 14.664062 C 29.269531 14.882812 29.15625 15.097656 28.996094 15.285156 Z M 27.320312 15.769531 C 27.316406 15.539062 27.316406 15.3125 27.285156 15.09375 C 27.265625 14.875 27.234375 14.664062 27.195312 14.464844 C 27.152344 14.257812 27.003906 14.085938 27.046875 13.894531 C 27.082031 13.695312 27.140625 13.496094 27.320312 13.179688 L 27.417969 13.136719 C 27.773438 13.230469 27.96875 13.464844 28.082031 13.707031 C 28.207031 13.957031 28.085938 14.234375 28.035156 14.480469 C 27.988281 14.730469 27.910156 14.96875 27.804688 15.191406 C 27.691406 15.410156 27.578125 15.621094 27.417969 15.808594 Z M 27.320312 15.769531 "/>
<path style=" stroke:none;fill-rule:nonzero;fill:rgb(31.764707%,17.647059%,65.882355%);fill-opacity:1;" d="M 30.527344 20 C 30.527344 20 30.527344 21.054688 29.472656 21.578125 C 28.421875 22.105469 24.429688 22.722656 23.683594 24.210938 C 23.15625 25.265625 22.105469 30 22.105469 30 L 9.472656 30 C 10.527344 28.421875 12.632812 27.894531 12.632812 27.894531 C 12.632812 27.894531 11.578125 26.316406 9.472656 26.316406 C 10.527344 24.210938 13.683594 24.210938 13.683594 24.210938 C 13.683594 24.210938 12.632812 22.105469 10 22.105469 C 11.050781 20.523438 14.210938 20.527344 14.210938 20.527344 C 14.210938 20.527344 13.15625 18.421875 11.050781 18.421875 C 12.105469 16.84375 15.261719 17.367188 15.261719 17.367188 C 15.261719 17.367188 14.210938 15.261719 12.105469 15.261719 C 13.15625 13.15625 16.316406 14.210938 16.316406 14.210938 C 16.316406 14.210938 16.316406 12.632812 14.210938 12.105469 C 15.789062 10 18.949219 11.582031 18.949219 11.582031 C 18.949219 11.582031 20.699219 9.957031 22.632812 10 C 24.5625 10.046875 24.738281 10.527344 25.789062 10.527344 C 26.84375 10.527344 27.367188 10 28.421875 10 C 29.472656 10 30.527344 11.054688 30.527344 12.632812 C 30.527344 12.632812 24.738281 15.277344 23.683594 17.902344 C 22.277344 20.976562 25.261719 20.527344 25.261719 20.527344 Z M 30.527344 20 "/>
<path style=" stroke:none;fill-rule:nonzero;fill:rgb(49.411765%,34.117648%,76.078433%);fill-opacity:1;" d="M 30.527344 20 C 30.527344 20 30.527344 21.054688 29.472656 21.578125 C 28.421875 22.105469 24.429688 22.722656 23.683594 24.210938 C 23.15625 25.265625 22.105469 30 22.105469 30 L 13.15625 30 C 15.261719 14.210938 18.949219 11.582031 18.949219 11.582031 C 18.949219 11.582031 20.699219 9.957031 22.632812 10 C 24.5625 10.046875 24.738281 10.527344 25.789062 10.527344 C 26.84375 10.527344 27.367188 10 28.421875 10 C 29.472656 10 30.527344 11.054688 30.527344 12.632812 C 30.527344 12.632812 26.847656 14.304688 24.820312 16.316406 C 19.902344 19.96875 21.050781 22.105469 25.261719 20.527344 C 30.527344 20 30.527344 20 30.527344 20 Z M 30.527344 20 "/>
<path style=" stroke:none;fill-rule:nonzero;fill:rgb(36.862746%,20.784314%,69.411767%);fill-opacity:1;" d="M 24.738281 12.632812 C 24.738281 12.632812 23.683594 15.261719 21.84375 15.261719 C 20.824219 15.261719 20 14.4375 20 13.421875 C 20 12.40625 20.527344 11.578125 21.84375 11.578125 C 22.859375 11.578125 24.738281 12.632812 24.738281 12.632812 Z M 24.738281 12.632812 "/>
<path style=" stroke:none;fill-rule:nonzero;fill:rgb(19.215687%,10.588235%,57.254905%);fill-opacity:1;" d="M 27.894531 11.578125 C 27.894531 11.871094 28.128906 12.105469 28.421875 12.105469 C 28.710938 12.105469 29.472656 12.105469 29.472656 12.105469 C 29.472656 12.105469 28.949219 11.050781 28.421875 11.050781 C 28.128906 11.050781 27.894531 11.289062 27.894531 11.578125 Z M 21.84375 11.578125 C 21.8125 11.578125 21.644531 11.578125 21.578125 11.578125 C 20 11.578125 19.453125 12.667969 19.476562 13.683594 C 20.054688 13.460938 20.570312 13.351562 21.042969 13.316406 C 22.011719 13.273438 23.1875 13.503906 23.945312 13.996094 C 24.4375 13.335938 24.738281 12.632812 24.738281 12.632812 C 24.738281 12.632812 22.859375 11.578125 21.84375 11.578125 Z M 21.84375 11.578125 "/>
<path style=" stroke:none;fill-rule:nonzero;fill:rgb(12.941177%,12.941177%,12.941177%);fill-opacity:1;" d="M 21.203125 13.316406 C 21.109375 13.410156 21.050781 13.539062 21.050781 13.683594 C 21.050781 13.976562 21.289062 14.210938 21.578125 14.210938 C 21.871094 14.210938 22.105469 13.976562 22.105469 13.683594 C 22.105469 13.558594 22.054688 13.449219 21.980469 13.359375 C 21.71875 13.328125 21.457031 13.3125 21.203125 13.316406 Z M 21.203125 13.316406 "/>
<path style=" stroke:none;fill-rule:nonzero;fill:rgb(93.333334%,100%,25.490198%);fill-opacity:1;" d="M 22.609375 13.464844 C 22.402344 13.417969 22.195312 13.390625 21.984375 13.363281 C 22.058594 13.453125 22.105469 13.5625 22.105469 13.683594 C 22.105469 13.976562 21.871094 14.210938 21.578125 14.210938 C 21.289062 14.210938 21.050781 13.976562 21.050781 13.683594 C 21.050781 13.542969 21.109375 13.414062 21.199219 13.320312 C 21.148438 13.320312 21.09375 13.3125 21.042969 13.316406 C 20.894531 13.328125 20.734375 13.351562 20.578125 13.378906 C 20.546875 13.476562 20.527344 13.578125 20.527344 13.683594 C 20.527344 14.265625 20.996094 14.738281 21.578125 14.738281 C 22.160156 14.738281 22.632812 14.265625 22.632812 13.683594 C 22.632812 13.609375 22.621094 13.535156 22.609375 13.464844 Z M 22.609375 13.464844 "/>
<path style=" stroke:none;fill-rule:nonzero;fill:rgb(10.196079%,13.725491%,49.411765%);fill-opacity:1;" d="M 22.105469 27.894531 L 20.527344 27.367188 L 18.949219 28.421875 L 19.472656 29.472656 L 21.578125 29.472656 Z M 20.527344 26.84375 L 22.105469 27.367188 L 22.632812 25.789062 Z M 18.421875 26.316406 L 18.421875 27.367188 L 18.949219 27.894531 L 20 27.367188 L 20 25.261719 Z M 23.15625 24.210938 L 22.632812 25.261719 L 20.527344 26.316406 L 20.527344 24.738281 L 21.578125 23.683594 Z M 17.894531 27.367188 L 18.949219 29.472656 L 17.367188 29.472656 L 16.316406 28.421875 Z M 15.261719 29.472656 L 16.84375 29.472656 L 15.789062 28.421875 Z M 23.683594 22.632812 L 23.15625 23.683594 L 21.578125 23.15625 Z M 23.683594 22.632812 "/>
<path style=" stroke:none;fill-rule:nonzero;fill:rgb(61.176473%,15.294118%,69.01961%);fill-opacity:1;" d="M 29.472656 16.316406 C 29.375 16.640625 28.949219 17.894531 28.15625 17.894531 C 27.722656 17.894531 27.367188 17.542969 27.367188 17.105469 C 27.367188 16.75 27.605469 16.449219 27.929688 16.351562 C 27.835938 16.332031 27.734375 16.316406 27.632812 16.316406 C 26.90625 16.316406 26.316406 16.90625 26.316406 17.632812 C 26.316406 17.886719 26.203125 18.386719 25.820312 18.414062 C 25.804688 18.417969 25.789062 18.417969 25.773438 18.417969 C 25.492188 18.410156 25.261719 18.179688 25.261719 17.894531 C 25.261719 17.636719 25.546875 17.414062 25.789062 17.367188 C 24.738281 17.367188 24.210938 18.367188 24.210938 18.949219 C 24.210938 19.527344 24.683594 20 25.261719 20 C 25.542969 20 25.542969 20 25.542969 20 C 26.316406 20 26.316406 19.472656 26.316406 19.472656 C 26.316406 19.472656 26.199219 19.472656 26.050781 19.472656 C 25.90625 19.472656 25.789062 19.355469 25.789062 19.210938 C 25.789062 19.066406 25.90625 18.949219 26.050781 18.949219 C 26.328125 18.949219 26.316406 18.949219 26.316406 18.949219 C 26.316406 18.949219 27.339844 18.949219 27.714844 18.949219 C 27.714844 18.945312 27.714844 18.941406 27.714844 18.941406 C 29.46875 18.859375 29.496094 16.410156 29.472656 16.316406 Z M 29.472656 16.316406 "/>
</g>
</svg>
