<?xml version="1.0" encoding="UTF-8"?>
<svg xmlns="http://www.w3.org/2000/svg" xmlns:xlink="http://www.w3.org/1999/xlink" viewBox="0 0 40 40" width="40px" height="40px">
<g id="surface33314105">
<path style=" stroke:none;fill-rule:nonzero;fill:rgb(96.078432%,96.078432%,96.078432%);fill-opacity:1;" d="M 20 37 C 10.609375 37 3 29.390625 3 20 C 3 10.609375 10.609375 3 20 3 C 29.390625 3 37 10.609375 37 20 C 37 29.390625 29.390625 37 20 37 Z M 20 37 "/>
<path style=" stroke:none;fill-rule:nonzero;fill:rgb(100%,87.843138%,69.803923%);fill-opacity:1;" d="M 14.914062 17.5 L 12.183594 20.316406 C 11.675781 20.820312 11.320312 21.34375 11.359375 21.988281 C 11.320312 22.542969 11.503906 23.136719 11.964844 23.75 L 13.648438 26.152344 C 15.375 27.882812 16.578125 29.199219 18.890625 29.347656 C 19.027344 29.363281 19.167969 29.375 19.308594 29.375 L 23.609375 29.375 C 26.796875 29.375 29.472656 26.839844 29.472656 23.652344 C 29.472656 23.652344 29.472656 20.964844 29.472656 17.5 Z M 14.914062 17.5 "/>
<path style=" stroke:none;fill-rule:nonzero;fill:rgb(100%,87.843138%,69.803923%);fill-opacity:1;" d="M 25.730469 18.179688 C 25.730469 19.179688 26.574219 20 27.605469 20 C 28.636719 20 29.480469 19.179688 29.480469 18.179688 L 29.464844 15.570312 C 29.464844 14.566406 28.621094 13.75 27.589844 13.75 C 26.558594 13.75 25.714844 14.570312 25.714844 15.570312 Z M 25.730469 18.179688 "/>
<path style=" stroke:none;fill-rule:nonzero;fill:rgb(100%,87.843138%,69.803923%);fill-opacity:1;" d="M 21.980469 18.179688 C 21.980469 19.179688 22.808594 20 23.839844 20 C 24.871094 20 25.730469 19.179688 25.730469 18.179688 L 25.730469 13.695312 C 25.730469 12.695312 24.886719 11.875 23.855469 11.875 C 22.824219 11.875 21.980469 12.695312 21.980469 13.695312 Z M 18.230469 18.125 C 18.230469 19.128906 19.058594 19.945312 20.089844 19.945312 C 21.121094 19.945312 21.980469 19.128906 21.980469 18.125 L 21.980469 12.445312 C 21.980469 11.445312 21.136719 10.625 20.105469 10.625 C 19.074219 10.625 18.230469 11.445312 18.230469 12.445312 Z M 14.480469 18.125 C 14.480469 19.128906 15.308594 19.945312 16.339844 19.945312 C 17.371094 19.945312 18.230469 19.128906 18.230469 18.125 L 18.230469 13.695312 C 18.230469 12.695312 17.386719 11.875 16.355469 11.875 C 15.324219 11.875 14.480469 12.695312 14.480469 13.695312 Z M 14.480469 18.125 "/>
<path style=" stroke:none;fill-rule:nonzero;fill:rgb(100%,92.156863%,93.333334%);fill-opacity:1;" d="M 26.347656 18.0625 C 26.355469 18.796875 26.917969 19.382812 27.609375 19.375 C 28.300781 19.367188 28.855469 18.765625 28.847656 18.035156 C 28.839844 17.304688 26.339844 17.332031 26.347656 18.0625 M 22.597656 18.0625 C 22.605469 18.796875 23.167969 19.382812 23.859375 19.375 C 24.550781 19.367188 25.105469 18.765625 25.097656 18.035156 C 25.089844 17.304688 22.589844 17.332031 22.597656 18.0625 "/>
<path style=" stroke:none;fill-rule:nonzero;fill:rgb(100%,80.000001%,50.196081%);fill-opacity:1;" d="M 29.464844 18.179688 C 29.464844 19.179688 28.621094 20 27.589844 20 C 26.558594 20 25.714844 19.179688 25.714844 18.179688 C 25.714844 18.808594 25.378906 19.367188 24.875 19.695312 C 25.402344 20.660156 26.414062 21.25 27.589844 21.25 C 28.296875 21.25 28.941406 21.007812 29.46875 20.617188 C 29.46875 19.402344 29.464844 18.179688 29.464844 18.179688 Z M 14.5 17.964844 L 14.480469 18.046875 L 14.710938 17.816406 C 15.019531 17.609375 15.382812 17.5 15.75 17.5 L 19.5 17.5 C 20.535156 17.5 21.375 18.339844 21.375 19.375 C 21.375 20.410156 20.535156 21.25 19.5 21.25 L 16.945312 21.25 L 18.25 22.5 L 19.5 22.5 C 21.222656 22.5 22.625 21.097656 22.625 19.375 C 22.625 17.652344 21.222656 16.875 19.5 16.875 C 19.5 16.875 20.109375 16.875 18.242188 16.875 C 15.75 16.875 14.992188 17.664062 14.5 17.964844 Z M 14.5 17.964844 "/>
<path style=" stroke:none;fill-rule:nonzero;fill:rgb(100%,80.000001%,50.196081%);fill-opacity:1;" d="M 18.148438 21.25 L 16.945312 21.25 L 16.480469 21.632812 C 16.480469 21.632812 21.035156 24.367188 21.351562 28.75 L 21.359375 29.375 L 22.625 29.375 C 22.625 24.90625 19.695312 22.308594 18.148438 21.25 Z M 25.714844 18.179688 C 25.714844 19.179688 24.871094 20 23.839844 20 C 22.859375 20 22.058594 19.257812 21.980469 18.324219 L 21.980469 20.664062 C 22.496094 21.035156 23.136719 21.25 23.839844 21.25 C 24.546875 21.25 25.191406 21.007812 25.71875 20.617188 C 25.71875 19.402344 25.714844 18.179688 25.714844 18.179688 Z M 18.257812 13.75 L 17.007812 17.5 L 18.257812 17.5 Z M 18.257812 13.75 "/>
<path style=" stroke:none;fill-rule:nonzero;fill:rgb(100%,80.000001%,50.196081%);fill-opacity:1;" d="M 22.007812 12.5 L 20.757812 17.5 L 22.007812 18.324219 Z M 22.007812 12.5 "/>
</g>
</svg>
