<?xml version="1.0" encoding="UTF-8"?>
<svg xmlns="http://www.w3.org/2000/svg" xmlns:xlink="http://www.w3.org/1999/xlink" viewBox="0 0 40 40" width="40px" height="40px">
<g id="surface20096051">
<path style=" stroke:none;fill-rule:nonzero;fill:rgb(96.078432%,96.078432%,96.078432%);fill-opacity:1;" d="M 20 36 C 11.164062 36 4 28.835938 4 20 C 4 11.164062 11.164062 4 20 4 C 28.835938 4 36 11.164062 36 20 C 36 28.835938 28.835938 36 20 36 Z M 20 36 "/>
<path style=" stroke:none;fill-rule:nonzero;fill:rgb(86.666667%,17.254902%,0%);fill-opacity:1;" d="M 29.375 22.5 C 29.375 27.746094 25.246094 31.875 20 31.875 C 14.753906 31.875 10.625 27.746094 10.625 22.5 C 10.625 17.253906 19.050781 12.875 18.097656 8.125 C 20 8.125 29.375 14.902344 29.375 22.5 Z M 29.375 22.5 "/>
<path style=" stroke:none;fill-rule:nonzero;fill:rgb(100%,34.117648%,13.333334%);fill-opacity:1;" d="M 25.625 25 C 25.625 20.25 20 15.625 20 15.625 C 20 19.425781 14.375 21.199219 14.375 25 C 14.375 28.148438 16.851562 30.625 20 30.625 C 23.148438 30.625 25.625 28.148438 25.625 25 Z M 25.625 25 "/>
<path style=" stroke:none;fill-rule:nonzero;fill:rgb(100%,75.686276%,2.745098%);fill-opacity:1;" d="M 16.875 27.128906 C 16.875 25 20 23.78125 20 21.875 C 20 21.875 23.125 24.269531 23.125 27.128906 C 23.125 28.707031 21.726562 29.988281 20 29.988281 C 18.273438 29.988281 16.875 28.707031 16.875 27.128906 Z M 16.875 27.128906 "/>
</g>
</svg>
