<?xml version="1.0" encoding="UTF-8"?>
<svg xmlns="http://www.w3.org/2000/svg" xmlns:xlink="http://www.w3.org/1999/xlink" viewBox="0 0 40 40" width="40px" height="40px">
<g id="surface20172562">
<path style=" stroke:none;fill-rule:nonzero;fill:rgb(96.078432%,96.078432%,96.078432%);fill-opacity:1;" d="M 20 37 C 10.609375 37 3 29.390625 3 20 C 3 10.609375 10.609375 3 20 3 C 29.390625 3 37 10.609375 37 20 C 37 29.390625 29.390625 37 20 37 Z M 20 37 "/>
<path style=" stroke:none;fill-rule:nonzero;fill:rgb(27.058825%,35.294119%,39.215687%);fill-opacity:1;" d="M 8.433594 12.792969 C 8.433594 12.792969 8.433594 13.800781 8.433594 14.304688 C 8.433594 15.59375 9.007812 17.464844 10.445312 18.324219 C 10.445312 18.324219 9.441406 18.324219 8.433594 17.824219 C 8.433594 17.824219 9.441406 20.335938 10.949219 20.335938 L 8.9375 20.335938 C 8.9375 20.335938 10.445312 21.847656 12.457031 21.847656 L 9.941406 21.847656 C 9.941406 21.847656 11.449219 25.871094 13.964844 24.863281 L 12.960938 26.875 L 18.492188 26.875 L 17.484375 18.828125 Z M 8.433594 12.792969 "/>
<path style=" stroke:none;fill-rule:nonzero;fill:rgb(20.392157%,59.607846%,85.882354%);fill-opacity:1;" d="M 15.472656 26.875 L 18.492188 26.875 C 18.492188 26.875 19.496094 26.371094 19.496094 24.863281 L 19.496094 20.839844 C 18.800781 18.816406 15.976562 16.316406 12.960938 15.308594 C 9.941406 14.304688 8.433594 12.292969 8.433594 12.292969 L 8.433594 14.304688 L 11.953125 17.320312 L 13.460938 19.835938 L 14.972656 22.851562 Z M 15.472656 26.875 "/>
<path style=" stroke:none;fill-rule:nonzero;fill:rgb(81.176472%,84.705883%,86.274511%);fill-opacity:1;" d="M 8.433594 12.292969 L 8.433594 14.304688 C 8.433594 14.304688 9.441406 16.816406 11.953125 17.320312 C 11.953125 17.320312 11.449219 19.332031 12.960938 19.835938 C 12.960938 19.835938 12.960938 22.851562 14.972656 23.355469 C 14.972656 23.355469 14.972656 26.371094 15.472656 26.875 L 16.984375 26.875 C 16.984375 26.875 15.664062 25.324219 16.480469 23.355469 C 16.617188 23.027344 16.480469 22.347656 15.472656 22.347656 C 14.46875 22.347656 13.460938 20.335938 13.964844 18.828125 C 13.964844 18.828125 11.953125 18.828125 13.460938 17.320312 C 13.460938 17.320312 8.9375 15.308594 8.433594 12.292969 Z M 8.433594 12.292969 "/>
<path style=" stroke:none;fill-rule:nonzero;fill:rgb(27.058825%,35.294119%,39.215687%);fill-opacity:1;" d="M 31.566406 12.792969 C 31.566406 12.792969 31.566406 13.800781 31.566406 14.304688 C 31.566406 15.59375 30.992188 17.464844 29.554688 18.324219 C 29.554688 18.324219 30.558594 18.324219 31.566406 17.824219 C 31.566406 17.824219 30.558594 20.335938 29.050781 20.335938 L 31.0625 20.335938 C 31.0625 20.335938 29.554688 21.847656 27.542969 21.847656 L 30.058594 21.847656 C 30.058594 21.847656 28.546875 25.871094 26.035156 24.863281 L 27.039062 26.875 L 21.507812 26.875 L 22.511719 18.828125 Z M 31.566406 12.792969 "/>
<path style=" stroke:none;fill-rule:nonzero;fill:rgb(20.392157%,59.607846%,85.882354%);fill-opacity:1;" d="M 24.523438 26.875 L 21.507812 26.875 C 21.507812 26.875 20.503906 26.371094 20.503906 24.863281 L 20.503906 20.839844 C 21.195312 18.816406 24.023438 16.316406 27.039062 15.308594 C 30.058594 14.304688 31.566406 12.292969 31.566406 12.292969 L 31.566406 14.304688 L 28.046875 17.320312 L 26.535156 19.835938 L 25.027344 22.851562 Z M 24.523438 26.875 "/>
<path style=" stroke:none;fill-rule:nonzero;fill:rgb(81.176472%,84.705883%,86.274511%);fill-opacity:1;" d="M 31.566406 12.292969 L 31.566406 14.304688 C 31.566406 14.304688 30.558594 16.816406 28.046875 17.320312 C 28.046875 17.320312 28.546875 19.332031 27.039062 19.835938 C 27.039062 19.835938 27.039062 22.851562 25.027344 23.355469 C 25.027344 23.355469 25.027344 26.371094 24.523438 26.875 L 23.015625 26.875 C 23.015625 26.875 24.335938 25.324219 23.519531 23.355469 C 23.382812 23.027344 23.519531 22.347656 24.523438 22.347656 C 25.53125 22.347656 26.535156 20.335938 26.035156 18.828125 C 26.035156 18.828125 28.046875 18.828125 26.535156 17.320312 C 26.535156 17.320312 31.0625 15.308594 31.566406 12.292969 Z M 31.566406 12.292969 "/>
</g>
</svg>
