<?xml version="1.0" encoding="UTF-8"?>
<svg xmlns="http://www.w3.org/2000/svg" xmlns:xlink="http://www.w3.org/1999/xlink" viewBox="0 0 40 40" width="40px" height="40px">
<g id="surface20169903">
<path style=" stroke:none;fill-rule:nonzero;fill:rgb(96.078432%,96.078432%,96.078432%);fill-opacity:1;" d="M 20 37 C 10.609375 37 3 29.390625 3 20 C 3 10.609375 10.609375 3 20 3 C 29.390625 3 37 10.609375 37 20 C 37 29.390625 29.390625 37 20 37 Z M 20 37 "/>
<path style=" stroke:none;fill-rule:nonzero;fill:rgb(80.000001%,80.000001%,80.000001%);fill-opacity:1;" d="M 27.5 15.519531 C 25.339844 15.027344 26.453125 8.019531 20 8.019531 C 13.546875 8.019531 14.660156 15.027344 12.5 15.519531 C 8.75 17.566406 8.75 23.019531 8.75 23.019531 C 10.625 23.023438 11.875 24.269531 12.5 24.894531 C 13.125 25.519531 13.125 28.019531 16.210938 28.609375 C 16.875 28.648438 17.5 31.144531 20 31.144531 C 22.5 31.148438 23.125 28.648438 23.789062 28.605469 C 26.875 28.019531 26.875 25.519531 27.5 24.894531 C 28.125 24.269531 29.375 23.023438 31.25 23.019531 C 31.25 23.019531 31.25 17.566406 27.5 15.519531 Z M 27.5 15.519531 "/>
<path style=" stroke:none;fill-rule:nonzero;fill:rgb(58.431375%,64.705884%,65.098041%);fill-opacity:1;" d="M 21.25 13.019531 C 20.558594 13.019531 20 13.71875 20 14.582031 C 20 15.445312 20.558594 16.144531 21.25 16.144531 C 21.941406 16.144531 22.5 15.445312 22.5 14.582031 C 22.5 13.71875 21.941406 13.019531 21.25 13.019531 Z M 17.5 13.019531 C 16.808594 13.019531 16.25 13.71875 16.25 14.582031 C 16.25 15.445312 16.808594 16.144531 17.5 16.144531 C 18.191406 16.144531 18.75 15.445312 18.75 14.582031 C 18.75 13.71875 18.191406 13.019531 17.5 13.019531 Z M 17.5 13.019531 "/>
<path style=" stroke:none;fill-rule:nonzero;fill:rgb(58.431375%,64.705884%,65.098041%);fill-opacity:1;" d="M 15.566406 28.46875 C 15.304688 28.390625 15.078125 28.292969 14.867188 28.1875 C 14.96875 26.960938 15.421875 22.929688 17.222656 20.015625 C 16.050781 23.375 16.128906 28.609375 16.128906 28.609375 C 15.925781 28.570312 15.746094 28.519531 15.566406 28.46875 Z M 14.265625 18.175781 C 12.417969 22.292969 12.417969 24.894531 12.417969 24.894531 C 12.148438 24.625 11.753906 24.242188 11.25 23.890625 C 11.621094 21.277344 13.332031 19.324219 14.265625 18.175781 Z M 24.351562 28.46875 C 24.613281 28.390625 24.839844 28.292969 25.050781 28.1875 C 24.953125 26.960938 24.5 22.929688 22.695312 20.015625 C 23.867188 23.375 23.789062 28.609375 23.789062 28.609375 C 23.992188 28.570312 24.171875 28.519531 24.351562 28.46875 Z M 25.652344 18.175781 C 27.5 22.292969 27.5 24.894531 27.5 24.894531 C 27.769531 24.625 28.164062 24.242188 28.667969 23.890625 C 28.296875 21.277344 26.585938 19.324219 25.652344 18.175781 Z M 25.652344 18.175781 "/>
</g>
</svg>
