<?xml version="1.0" encoding="UTF-8"?>
<svg xmlns="http://www.w3.org/2000/svg" xmlns:xlink="http://www.w3.org/1999/xlink" viewBox="0 0 40 40" width="40px" height="40px">
<g id="surface20253436">
<path style=" stroke:none;fill-rule:nonzero;fill:rgb(94.901961%,94.901961%,94.901961%);fill-opacity:1;" d="M 20 37 C 10.609375 37 3 29.390625 3 20 C 3 10.609375 10.609375 3 20 3 C 29.390625 3 37 10.609375 37 20 C 37 29.390625 29.390625 37 20 37 Z M 20 37 "/>
<path style=" stroke:none;fill-rule:nonzero;fill:rgb(21.960784%,55.686277%,23.529412%);fill-opacity:1;" d="M 17.5 31.867188 C 17.5 21.257812 22.039062 12.457031 23.125 10.628906 C 22.59375 12.363281 21.25 15.628906 21.25 31.886719 Z M 17.5 31.867188 "/>
<path style=" stroke:none;fill-rule:nonzero;fill:rgb(21.960784%,55.686277%,23.529412%);fill-opacity:1;" d="M 20 31.863281 C 20 23.296875 26.851562 13.476562 28.75 11.878906 C 27.699219 13.339844 23.75 19.558594 23.75 31.894531 Z M 20 31.863281 "/>
<path style=" stroke:none;fill-rule:nonzero;fill:rgb(21.960784%,55.686277%,23.529412%);fill-opacity:1;" d="M 16.875 31.878906 C 16.875 21.253906 13.355469 15.707031 12.5 14.378906 C 13.601562 15.515625 20.625 24.386719 20.625 31.878906 Z M 16.875 31.878906 "/>
<path style=" stroke:none;fill-rule:nonzero;fill:rgb(54.509807%,76.47059%,29.019609%);fill-opacity:1;" d="M 23.125 31.878906 C 23.125 23.355469 30.136719 16.476562 31.25 15.628906 C 30.355469 16.699219 26.875 22.503906 26.875 31.878906 Z M 13.75 31.878906 C 13.75 22.480469 9.714844 16.671875 8.75 15.628906 C 9.921875 16.441406 17.5 23.59375 17.5 31.878906 Z M 13.75 31.878906 "/>
<path style=" stroke:none;fill-rule:nonzero;fill:rgb(29.803923%,68.627453%,31.37255%);fill-opacity:1;" d="M 17.140625 19.371094 C 17.375 20.269531 17.558594 21.179688 17.714844 22.09375 C 19.300781 25.117188 20.625 28.625 20.625 31.871094 L 21.875 31.863281 C 21.71875 29.640625 21.410156 27.378906 20.925781 25.1875 C 20.441406 22.988281 19.78125 20.832031 18.917969 18.769531 C 18.058594 16.707031 16.996094 14.734375 15.726562 12.925781 C 14.453125 11.125 12.996094 9.433594 11.25 8.128906 C 12.785156 9.667969 13.953125 11.507812 14.925781 13.40625 C 15.886719 15.316406 16.617188 17.324219 17.140625 19.371094 Z M 18.125 31.878906 C 18.125 31.882812 18.125 31.886719 18.125 31.894531 L 20 31.878906 Z M 18.125 31.878906 "/>
</g>
</svg>
