<?xml version="1.0" encoding="UTF-8"?>
<svg xmlns="http://www.w3.org/2000/svg" xmlns:xlink="http://www.w3.org/1999/xlink" viewBox="0 0 40 40" width="40px" height="40px">
<g id="surface20102751">
<path style=" stroke:none;fill-rule:nonzero;fill:rgb(96.078432%,96.078432%,96.078432%);fill-opacity:1;" d="M 20 36 C 11.164062 36 4 28.835938 4 20 C 4 11.164062 11.164062 4 20 4 C 28.835938 4 36 11.164062 36 20 C 36 28.835938 28.835938 36 20 36 Z M 20 36 "/>
<path style=" stroke:none;fill-rule:nonzero;fill:rgb(48.627451%,70.19608%,25.882354%);fill-opacity:1;" d="M 8.234375 25.292969 L 31.765625 25.292969 L 31.765625 30 L 8.234375 30 Z M 8.234375 25.292969 "/>
<path style=" stroke:none;fill-rule:nonzero;fill:rgb(63.137257%,53.333336%,49.803922%);fill-opacity:1;" d="M 17.648438 25.292969 C 17.648438 25.292969 22.941406 13.53125 24.707031 13.53125 C 26.46875 13.527344 31.765625 25.292969 31.765625 25.292969 Z M 17.648438 25.292969 "/>
<path style=" stroke:none;fill-rule:nonzero;fill:rgb(47.450981%,33.333334%,28.235295%);fill-opacity:1;" d="M 8.234375 25.292969 C 8.234375 25.292969 14.707031 10 16.46875 10 C 18.234375 10 24.707031 25.292969 24.707031 25.292969 Z M 8.234375 25.292969 "/>
<path style=" stroke:none;fill-rule:nonzero;fill:rgb(48.627451%,70.19608%,25.882354%);fill-opacity:1;" d="M 31.765625 25.292969 L 8.234375 25.292969 C 8.234375 25.292969 10.589844 24.117188 20 24.117188 C 29.410156 24.117188 31.765625 25.292969 31.765625 25.292969 Z M 31.765625 25.292969 "/>
<path style=" stroke:none;fill-rule:nonzero;fill:rgb(61.176473%,80.000001%,39.607844%);fill-opacity:1;" d="M 31.765625 28.824219 L 31.765625 30 L 8.234375 30 L 8.234375 28.824219 C 8.234375 28.824219 11.765625 27.058594 20 27.058594 C 28.234375 27.058594 31.765625 28.824219 31.765625 28.824219 Z M 31.765625 28.824219 "/>
</g>
</svg>
