<?xml version="1.0" encoding="UTF-8"?>
<svg xmlns="http://www.w3.org/2000/svg" xmlns:xlink="http://www.w3.org/1999/xlink" viewBox="0 0 40 40" width="40px" height="40px">
<g id="surface20119918">
<path style=" stroke:none;fill-rule:nonzero;fill:rgb(96.078432%,96.078432%,96.078432%);fill-opacity:1;" d="M 20 36 C 11.164062 36 4 28.835938 4 20 C 4 11.164062 11.164062 4 20 4 C 28.835938 4 36 11.164062 36 20 C 36 28.835938 28.835938 36 20 36 Z M 20 36 "/>
<path style=" stroke:none;fill-rule:nonzero;fill:rgb(32.549021%,42.745098%,99.607843%);fill-opacity:1;" d="M 19.375 12.4375 L 20.625 12.4375 L 20.625 27.5625 L 19.375 27.5625 Z M 19.375 12.4375 "/>
<path style=" stroke:none;fill-rule:nonzero;fill:rgb(32.549021%,42.745098%,99.607843%);fill-opacity:1;" d="M 12.929688 16.765625 L 13.539062 15.671875 L 27.015625 23.203125 L 26.40625 24.296875 Z M 12.929688 16.765625 "/>
<path style=" stroke:none;fill-rule:nonzero;fill:rgb(32.549021%,42.745098%,99.607843%);fill-opacity:1;" d="M 12.929688 23.234375 L 26.40625 15.703125 L 27.015625 16.792969 L 13.539062 24.328125 Z M 12.929688 23.234375 "/>
<path style=" stroke:none;fill-rule:nonzero;fill:rgb(32.549021%,42.745098%,99.607843%);fill-opacity:1;" d="M 15.691406 13.828125 L 16.765625 13.183594 L 24.898438 26.742188 L 23.828125 27.386719 Z M 15.691406 13.828125 "/>
<path style=" stroke:none;fill-rule:nonzero;fill:rgb(32.549021%,42.745098%,99.607843%);fill-opacity:1;" d="M 15.066406 26.796875 L 23.203125 13.238281 L 24.277344 13.882812 L 16.136719 27.441406 Z M 15.066406 26.796875 "/>
<path style=" stroke:none;fill-rule:nonzero;fill:rgb(32.549021%,42.745098%,99.607843%);fill-opacity:1;" d="M 11.875 19.375 L 28.125 19.375 L 28.125 20.625 L 11.875 20.625 Z M 11.875 19.375 "/>
<path style=" stroke:none;fill-rule:nonzero;fill:rgb(26.666668%,54.11765%,100%);fill-opacity:1;" d="M 17.5 14.0625 C 17.5 14.5625 17.0625 15 16.5625 15 C 16.0625 15 15.625 14.5625 15.625 14.0625 C 15.625 13.5625 16.0625 13.125 16.5625 13.125 C 17.0625 13.125 17.5 13.5625 17.5 14.0625 Z M 28.75 20 C 28.75 20.5 28.3125 20.9375 27.8125 20.9375 C 27.3125 20.9375 26.875 20.5 26.875 20 C 26.875 19.5 27.3125 19.0625 27.8125 19.0625 C 28.3125 19.0625 28.75 19.5 28.75 20 Z M 13.125 20 C 13.125 20.5 12.6875 20.9375 12.1875 20.9375 C 11.6875 20.9375 11.25 20.5 11.25 20 C 11.25 19.5 11.6875 19.0625 12.1875 19.0625 C 12.6875 19.0625 13.125 19.5 13.125 20 Z M 25 26.5625 C 25 27.0625 24.5625 27.5 24.0625 27.5 C 23.5625 27.5 23.125 27.0625 23.125 26.5625 C 23.125 26.0625 23.5625 25.625 24.0625 25.625 C 24.5625 25.625 25 26.0625 25 26.5625 Z M 24.375 14.0625 C 24.375 14.5625 23.9375 15 23.4375 15 C 22.9375 15 22.5 14.5625 22.5 14.0625 C 22.5 13.5625 22.9375 13.125 23.4375 13.125 C 23.9375 13.125 24.375 13.5625 24.375 14.0625 Z M 16.875 26.5625 C 16.875 27.0625 16.4375 27.5 15.9375 27.5 C 15.4375 27.5 15 27.0625 15 26.5625 C 15 26.0625 15.4375 25.625 15.9375 25.625 C 16.4375 25.625 16.875 26.0625 16.875 26.5625 Z M 16.875 26.5625 "/>
<path style=" stroke:none;fill-rule:nonzero;fill:rgb(54.901963%,61.960787%,100%);fill-opacity:1;" d="M 8.492188 25.691406 L 13.503906 22.875 L 14.113281 23.960938 L 9.101562 26.78125 Z M 8.492188 25.691406 "/>
<path style=" stroke:none;fill-rule:nonzero;fill:rgb(54.901963%,61.960787%,100%);fill-opacity:1;" d="M 26.152344 15.835938 L 30.894531 13.171875 L 31.507812 14.261719 L 26.765625 16.925781 Z M 26.152344 15.835938 "/>
<path style=" stroke:none;fill-rule:nonzero;fill:rgb(54.901963%,61.960787%,100%);fill-opacity:1;" d="M 30.8125 18.375 L 25.4375 17 L 26.875 11.6875 L 28.0625 12.0625 L 27 16.0625 L 31.125 17.1875 Z M 13.125 28.3125 L 11.9375 27.9375 L 13 23.9375 L 8.875 22.8125 L 9.1875 21.625 L 14.5625 23 Z M 19.375 7.5 L 20.625 7.5 L 20.625 13.125 L 19.375 13.125 Z M 19.375 7.5 "/>
<path style=" stroke:none;fill-rule:nonzero;fill:rgb(54.901963%,61.960787%,100%);fill-opacity:1;" d="M 20 13.9375 L 16.0625 10.125 L 16.9375 9.25 L 20 12.1875 L 23.0625 9.25 L 23.9375 10.125 Z M 19.375 26.875 L 20.625 26.875 L 20.625 32.5 L 19.375 32.5 Z M 19.375 26.875 "/>
<path style=" stroke:none;fill-rule:nonzero;fill:rgb(54.901963%,61.960787%,100%);fill-opacity:1;" d="M 23.0625 30.75 L 20 27.8125 L 16.9375 30.75 L 16.0625 29.875 L 20 26.0625 L 23.9375 29.875 Z M 30.875 26.8125 L 30.3125 26.5 C 28.9375 25.75 27.625 25 26.25 24.1875 L 25.6875 23.875 L 26.3125 22.8125 L 26.875 23.125 C 28.25 23.875 29.5625 24.625 30.9375 25.4375 L 31.5 25.75 Z M 30.875 26.8125 "/>
<path style=" stroke:none;fill-rule:nonzero;fill:rgb(54.901963%,61.960787%,100%);fill-opacity:1;" d="M 26.875 28.3125 L 25.4375 23 L 30.8125 21.625 L 31.125 22.8125 L 27 23.9375 L 28.0625 27.9375 Z M 26.875 28.3125 "/>
<path style=" stroke:none;fill-rule:nonzero;fill:rgb(54.901963%,61.960787%,100%);fill-opacity:1;" d="M 8.511719 14.277344 L 9.121094 13.1875 L 14.195312 16.023438 L 13.585938 17.113281 Z M 8.511719 14.277344 "/>
<path style=" stroke:none;fill-rule:nonzero;fill:rgb(54.901963%,61.960787%,100%);fill-opacity:1;" d="M 9.1875 18.375 L 8.875 17.1875 L 13 16.0625 L 11.9375 12.0625 L 13.125 11.6875 L 14.5625 17 Z M 9.1875 18.375 "/>
</g>
</svg>
