<svg xmlns="http://www.w3.org/2000/svg"  viewBox="0 0 64 64" width="64px" height="64px"><circle cx="38" cy="32" r="22" fill="#00A0C8"/><path fill="#0082AA" d="M18.414,24.586c-0.263-0.264-0.589-0.443-0.936-0.528C16.524,26.522,16,29.2,16,32 s0.524,5.478,1.478,7.942c0.347-0.085,0.673-0.264,0.936-0.528l6-6c0.781-0.781,0.781-2.047,0-2.828L18.414,24.586z"/><path fill="#0A5078" d="M42,16h-8c-3.314,0-6,2.686-6,6v6h20v-6C48,18.686,45.314,16,42,16z"/><path fill="#C80A50" d="M26,50.442C29.451,52.692,33.573,54,38,54s8.549-1.308,12-3.558V42H26V50.442z"/><rect width="8" height="6" x="34" y="36" fill="#D2AA82"/><path fill="#F0C8A0" d="M40,40h-4c-4.418,0-8-3.582-8-8v-4h0c1.105,0,2-0.895,2-2l0-4h16l0,4c0,1.105,0.895,2,2,2h0v4 C48,36.418,44.418,40,40,40z"/><path fill="#D2AA82" d="M28,32L28,32l0-6h0c-1.105,0-2,0.895-2,2v2C26,31.105,26.895,32,28,32z"/><path fill="#D2AA82" d="M48,32L48,32l0-6h0c1.105,0,2,0.895,2,2v2C50,31.105,49.105,32,48,32z"/><path fill="#A00028" d="M20.023,44.684c1.609,2.276,3.639,4.233,5.977,5.758V42C23.623,42,21.488,43.037,20.023,44.684z"/><path fill="#A00028" d="M50,50.442c2.338-1.525,4.369-3.482,5.977-5.758C54.512,43.037,52.377,42,50,42V50.442z"/><path fill="#D2AA82" d="M42,42L42,42c0,2.209-1.791,4-4,4h0c-2.209,0-4-1.791-4-4v0H42z"/><g><path fill="#0A5078" d="M44,22H30v-4c0-2.209,1.791-4,4-4h10c2.209,0,4,1.791,4,4v0C48,20.209,46.209,22,44,22z"/></g><path fill="#FAB400" d="M23.414,30.586l-6-6c-0.571-0.572-1.433-0.744-2.179-0.434C14.487,24.462,14,25.191,14,26v2H6 c-1.105,0-2,0.895-2,2v4c0,1.105,0.895,2,2,2h8v2c0,0.809,0.487,1.538,1.235,1.848C15.482,39.95,15.742,40,16,40 c0.521,0,1.032-0.203,1.415-0.586l6-6C24.195,32.633,24.195,31.367,23.414,30.586z"/></svg>