<?xml version="1.0" encoding="UTF-8"?>
<svg xmlns="http://www.w3.org/2000/svg" xmlns:xlink="http://www.w3.org/1999/xlink" viewBox="0 0 40 40" width="40px" height="40px">
<g id="surface20181513">
<path style=" stroke:none;fill-rule:nonzero;fill:rgb(96.078432%,96.078432%,96.078432%);fill-opacity:1;" d="M 20 37 C 10.609375 37 3 29.390625 3 20 C 3 10.609375 10.609375 3 20 3 C 29.390625 3 37 10.609375 37 20 C 37 29.390625 29.390625 37 20 37 Z M 20 37 "/>
<path style=" stroke:none;fill-rule:nonzero;fill:rgb(94.509804%,76.862746%,5.882353%);fill-opacity:1;" d="M 31.675781 13.378906 L 26.621094 17.59375 L 26.621094 9.167969 Z M 31.675781 13.378906 "/>
<path style=" stroke:none;fill-rule:nonzero;fill:rgb(94.509804%,76.862746%,5.882353%);fill-opacity:1;" d="M 7.964844 12.175781 L 28.425781 12.175781 L 28.425781 14.582031 L 7.964844 14.582031 Z M 7.964844 12.175781 "/>
<path style=" stroke:none;fill-rule:nonzero;fill:rgb(20%,20%,20%);fill-opacity:1;" d="M 29.628906 19.398438 L 32.035156 19.398438 L 32.035156 30.832031 L 29.628906 30.832031 Z M 26.019531 19.398438 L 28.425781 19.398438 L 28.425781 30.832031 L 26.019531 30.832031 Z M 22.40625 19.398438 L 24.816406 19.398438 L 24.816406 30.832031 L 22.40625 30.832031 Z M 18.796875 19.398438 L 21.203125 19.398438 L 21.203125 30.832031 L 18.796875 30.832031 Z M 15.183594 19.398438 L 17.59375 19.398438 L 17.59375 30.832031 L 15.183594 30.832031 Z M 11.574219 19.398438 L 13.980469 19.398438 L 13.980469 30.832031 L 11.574219 30.832031 Z M 7.964844 19.398438 L 10.371094 19.398438 L 10.371094 30.832031 L 7.964844 30.832031 Z M 7.964844 19.398438 "/>
</g>
</svg>
