<?xml version="1.0" encoding="UTF-8"?>
<svg xmlns="http://www.w3.org/2000/svg" xmlns:xlink="http://www.w3.org/1999/xlink" viewBox="0 0 40 40" width="40px" height="40px">
<g id="surface33319924">
<path style=" stroke:none;fill-rule:nonzero;fill:rgb(96.078432%,96.078432%,96.078432%);fill-opacity:1;" d="M 20 37 C 10.609375 37 3 29.390625 3 20 C 3 10.609375 10.609375 3 20 3 C 29.390625 3 37 10.609375 37 20 C 37 29.390625 29.390625 37 20 37 Z M 20 37 "/>
<path style=" stroke:none;fill-rule:nonzero;fill:rgb(60.784316%,34.901962%,71.372551%);fill-opacity:1;" d="M 10.09375 28.835938 L 29.214844 9.710938 L 30.953125 11.449219 L 11.832031 30.574219 Z M 10.09375 28.835938 "/>
<path style=" stroke:none;fill-rule:nonzero;fill:rgb(60.784316%,34.901962%,71.372551%);fill-opacity:1;" d="M 29.21875 7.792969 C 28.199219 7.792969 27.375 8.617188 27.375 9.636719 C 27.375 10.652344 28.199219 11.480469 29.21875 11.480469 C 30.238281 11.480469 31.0625 10.652344 31.0625 9.636719 C 31.0625 8.617188 30.238281 7.792969 29.21875 7.792969 Z M 29.21875 7.792969 "/>
<path style=" stroke:none;fill-rule:nonzero;fill:rgb(60.784316%,34.901962%,71.372551%);fill-opacity:1;" d="M 31.0625 9.636719 C 30.042969 9.636719 29.21875 10.460938 29.21875 11.480469 C 29.21875 12.496094 30.042969 13.324219 31.0625 13.324219 C 32.082031 13.324219 32.90625 12.496094 32.90625 11.480469 C 32.90625 10.460938 32.082031 9.636719 31.0625 9.636719 Z M 10.167969 26.84375 C 9.148438 26.84375 8.324219 27.667969 8.324219 28.6875 C 8.324219 29.707031 9.148438 30.53125 10.167969 30.53125 C 11.183594 30.53125 12.011719 29.707031 12.011719 28.6875 C 12.011719 27.667969 11.183594 26.84375 10.167969 26.84375 Z M 10.167969 26.84375 "/>
<path style=" stroke:none;fill-rule:nonzero;fill:rgb(60.784316%,34.901962%,71.372551%);fill-opacity:1;" d="M 11.394531 28.6875 C 10.378906 28.6875 9.550781 29.511719 9.550781 30.53125 C 9.550781 31.550781 10.378906 32.375 11.394531 32.375 C 12.414062 32.375 13.238281 31.550781 13.238281 30.53125 C 13.238281 29.511719 12.414062 28.6875 11.394531 28.6875 Z M 11.394531 28.6875 "/>
<path style=" stroke:none;fill-rule:nonzero;fill:rgb(60.784316%,34.901962%,71.372551%);fill-opacity:1;" d="M 9.015625 11.464844 L 10.753906 9.726562 L 29.878906 28.847656 L 28.140625 30.585938 Z M 9.015625 11.464844 "/>
<path style=" stroke:none;fill-rule:nonzero;fill:rgb(60.784316%,34.901962%,71.372551%);fill-opacity:1;" d="M 22.457031 31.761719 L 17.542969 31.761719 C 16.191406 31.761719 15.082031 30.652344 15.082031 29.300781 L 15.082031 25.613281 L 24.917969 25.613281 L 24.917969 29.300781 C 24.917969 30.652344 23.808594 31.761719 22.457031 31.761719 Z M 10.78125 7.792969 C 9.761719 7.792969 8.9375 8.617188 8.9375 9.636719 C 8.9375 10.652344 9.761719 11.480469 10.78125 11.480469 C 11.800781 11.480469 12.625 10.652344 12.625 9.636719 C 12.625 8.617188 11.800781 7.792969 10.78125 7.792969 Z M 10.78125 7.792969 "/>
<path style=" stroke:none;fill-rule:nonzero;fill:rgb(60.784316%,34.901962%,71.372551%);fill-opacity:1;" d="M 8.9375 9.636719 C 7.917969 9.636719 7.09375 10.460938 7.09375 11.480469 C 7.09375 12.496094 7.917969 13.324219 8.9375 13.324219 C 9.957031 13.324219 10.78125 12.496094 10.78125 11.480469 C 10.78125 10.460938 9.957031 9.636719 8.9375 9.636719 Z M 29.832031 26.84375 C 28.816406 26.84375 27.988281 27.667969 27.988281 28.6875 C 27.988281 29.707031 28.816406 30.53125 29.832031 30.53125 C 30.851562 30.53125 31.675781 29.707031 31.675781 28.6875 C 31.675781 27.667969 30.851562 26.84375 29.832031 26.84375 Z M 29.832031 26.84375 "/>
<path style=" stroke:none;fill-rule:nonzero;fill:rgb(60.784316%,34.901962%,71.372551%);fill-opacity:1;" d="M 28.605469 28.6875 C 27.585938 28.6875 26.761719 29.511719 26.761719 30.53125 C 26.761719 31.550781 27.585938 32.375 28.605469 32.375 C 29.621094 32.375 30.449219 31.550781 30.449219 30.53125 C 30.449219 29.511719 29.621094 28.6875 28.605469 28.6875 Z M 28.605469 28.6875 "/>
<path style=" stroke:none;fill-rule:nonzero;fill:rgb(76.47059%,44.313726%,87.843138%);fill-opacity:1;" d="M 20 8.40625 C 14.910156 8.40625 10.78125 12.257812 10.78125 17.011719 C 10.78125 21.761719 14.910156 25.613281 20 25.613281 C 25.089844 25.613281 29.21875 21.761719 29.21875 17.011719 C 29.21875 12.257812 25.089844 8.40625 20 8.40625 Z M 20 8.40625 "/>
<path style=" stroke:none;fill-rule:nonzero;fill:rgb(76.47059%,44.313726%,87.843138%);fill-opacity:1;" d="M 26.144531 25.613281 L 13.855469 25.613281 C 12.808594 25.613281 12.011719 24.816406 12.011719 23.769531 L 12.011719 18.855469 L 27.988281 18.855469 L 27.988281 23.769531 C 27.988281 24.753906 27.191406 25.613281 26.144531 25.613281 Z M 26.144531 25.613281 "/>
<path style=" stroke:none;fill-rule:nonzero;fill:rgb(76.47059%,44.313726%,87.843138%);fill-opacity:1;" d="M 22.457031 28.6875 L 17.542969 28.6875 C 16.867188 28.6875 16.3125 28.132812 16.3125 27.457031 L 16.3125 23.769531 L 23.6875 23.769531 L 23.6875 27.457031 C 23.6875 28.132812 23.132812 28.6875 22.457031 28.6875 Z M 17.542969 29.300781 L 18.769531 29.300781 L 18.769531 30.53125 L 17.542969 30.53125 Z M 21.230469 29.300781 L 22.457031 29.300781 L 22.457031 30.53125 L 21.230469 30.53125 Z M 19.386719 29.300781 L 20.613281 29.300781 L 20.613281 30.53125 L 19.386719 30.53125 Z M 19.386719 29.300781 "/>
<path style=" stroke:none;fill-rule:nonzero;fill:rgb(20%,41.176471%,11.764706%);fill-opacity:1;" d="M 20 23.15625 C 19.386719 23.277344 18.464844 24.816406 18.464844 25.613281 C 18.464844 25.984375 18.832031 26.230469 19.078125 26.230469 C 19.570312 26.230469 19.878906 25.738281 20 25.429688 C 20.121094 25.800781 20.367188 26.230469 20.921875 26.230469 C 21.289062 26.230469 21.535156 25.984375 21.535156 25.613281 C 21.535156 24.816406 20.613281 23.277344 20 23.15625 Z M 23.6875 18.855469 C 22.328125 18.855469 21.230469 19.953125 21.230469 21.3125 C 21.230469 22.671875 22.328125 23.769531 23.6875 23.769531 C 25.046875 23.769531 26.144531 22.671875 26.144531 21.3125 C 26.144531 19.953125 25.046875 18.855469 23.6875 18.855469 Z M 16.3125 18.855469 C 14.953125 18.855469 13.855469 19.953125 13.855469 21.3125 C 13.855469 22.671875 14.953125 23.769531 16.3125 23.769531 C 17.671875 23.769531 18.769531 22.671875 18.769531 21.3125 C 18.769531 19.953125 17.671875 18.855469 16.3125 18.855469 Z M 16.3125 18.855469 "/>
<path style=" stroke:none;fill-rule:nonzero;fill:rgb(80.000001%,100%,56.470591%);fill-opacity:1;" d="M 17.542969 27.457031 L 18.769531 27.457031 L 18.769531 28.6875 L 17.542969 28.6875 Z M 21.230469 27.457031 L 22.457031 27.457031 L 22.457031 28.6875 L 21.230469 28.6875 Z M 19.386719 27.457031 L 20.613281 27.457031 L 20.613281 28.6875 L 19.386719 28.6875 Z M 19.386719 27.457031 "/>
</g>
</svg>
