<?xml version="1.0" encoding="UTF-8"?>
<svg xmlns="http://www.w3.org/2000/svg" xmlns:xlink="http://www.w3.org/1999/xlink" viewBox="0 0 40 40" width="40px" height="40px">
<g id="surface20158496">
<path style=" stroke:none;fill-rule:nonzero;fill:rgb(96.078432%,96.078432%,96.078432%);fill-opacity:1;" d="M 20 36 C 11.164062 36 4 28.835938 4 20 C 4 11.164062 11.164062 4 20 4 C 28.835938 4 36 11.164062 36 20 C 36 28.835938 28.835938 36 20 36 Z M 20 36 "/>
<path style=" stroke:none;fill-rule:nonzero;fill:rgb(100%,71.764708%,30.19608%);fill-opacity:1;" d="M 25.148438 19.375 L 17.707031 19.375 L 17.707031 10.617188 C 17.707031 9.925781 17.082031 8.75 15.832031 8.75 C 14.582031 8.75 13.957031 9.992188 13.957031 10.617188 C 13.957031 11.242188 13.957031 25.621094 13.957031 25.621094 L 11.222656 23.105469 C 10.355469 22.238281 9.070312 22.15625 8.199219 23.21875 C 7.429688 24.089844 7.621094 25.441406 8.394531 26.214844 L 11.953125 29.769531 C 13.898438 31.875 16.808594 32.5 18.734375 32.5 L 23.035156 32.5 C 26.222656 32.5 28.957031 29.964844 28.957031 26.777344 C 28.957031 26.777344 28.957031 23.761719 28.957031 20 Z M 25.148438 19.375 "/>
<path style=" stroke:none;fill-rule:nonzero;fill:rgb(100%,71.764708%,30.19608%);fill-opacity:1;" d="M 17.707031 21.929688 C 17.707031 22.929688 18.550781 23.75 19.582031 23.75 C 20.617188 23.75 21.457031 22.929688 21.457031 21.929688 L 21.457031 9.320312 C 21.457031 8.320312 20.617188 7.5 19.582031 7.5 C 18.550781 7.5 17.707031 8.320312 17.707031 9.320312 Z M 25.207031 24.429688 C 25.207031 25.429688 26.050781 26.25 27.082031 26.25 C 28.117188 26.25 28.957031 25.429688 28.957031 24.429688 L 28.957031 13.070312 C 28.957031 12.066406 28.125 11.25 27.09375 11.25 C 26.0625 11.25 25.21875 12.070312 25.21875 13.070312 Z M 21.457031 23.179688 C 21.457031 24.179688 22.300781 25 23.332031 25 C 24.367188 25 25.207031 24.179688 25.207031 23.179688 L 25.207031 10.570312 C 25.207031 9.570312 24.367188 8.75 23.332031 8.75 C 22.300781 8.75 21.457031 9.570312 21.457031 10.570312 Z M 21.457031 23.179688 "/>
<path style=" stroke:none;fill-rule:nonzero;fill:rgb(100%,65.490198%,14.901961%);fill-opacity:1;" d="M 17.714844 10.625 C 17.710938 10.628906 17.707031 10.644531 17.707031 10.644531 L 17.714844 18.128906 C 17.714844 18.472656 17.992188 18.753906 18.339844 18.753906 C 18.683594 18.753906 18.964844 18.472656 18.964844 18.128906 Z M 21.46875 10.484375 L 21.457031 18.75 C 21.457031 19.09375 21.738281 19.375 22.082031 19.375 C 22.429688 19.375 22.707031 19.09375 22.707031 18.75 C 22.707031 18.75 21.472656 10.40625 21.46875 10.484375 Z M 25.207031 12.757812 L 25.207031 19.375 C 25.207031 19.71875 25.488281 20 25.832031 20 C 26.179688 20 26.457031 19.71875 26.457031 19.375 C 26.457031 19.375 25.210938 12.679688 25.207031 12.757812 Z M 25.207031 12.757812 "/>
<path style=" stroke:none;fill-rule:nonzero;fill:rgb(100%,100%,100%);fill-opacity:1;" d="M 21.460938 27.5 C 18.773438 27.5 16.667969 25.214844 16.582031 25.117188 L 16.199219 24.699219 L 16.578125 24.277344 C 16.667969 24.179688 18.773438 21.875 21.460938 21.875 C 24.148438 21.875 26.25 24.179688 26.339844 24.277344 L 26.71875 24.695312 L 26.339844 25.113281 C 26.25 25.210938 24.144531 27.5 21.460938 27.5 Z M 21.460938 27.5 "/>
<path style=" stroke:none;fill-rule:nonzero;fill:rgb(81.176472%,84.705883%,86.274511%);fill-opacity:1;" d="M 21.460938 22.5 C 23.898438 22.5 25.875 24.695312 25.875 24.695312 C 25.875 24.695312 23.898438 26.875 21.460938 26.875 C 19.019531 26.875 17.042969 24.695312 17.042969 24.695312 C 17.042969 24.695312 19.019531 22.5 21.460938 22.5 M 21.460938 21.25 C 18.496094 21.25 16.210938 23.753906 16.113281 23.859375 L 15.359375 24.699219 L 16.117188 25.535156 C 16.210938 25.640625 18.5 28.125 21.460938 28.125 C 24.417969 28.125 26.703125 25.640625 26.800781 25.535156 L 27.558594 24.699219 L 26.804688 23.859375 C 26.707031 23.753906 24.421875 21.25 21.460938 21.25 Z M 21.460938 21.25 "/>
<path style=" stroke:none;fill-rule:nonzero;fill:rgb(81.176472%,84.705883%,86.274511%);fill-opacity:1;" d="M 21.414062 21.929688 C 23.855469 21.929688 25.832031 24.636719 25.832031 24.636719 C 25.832031 24.636719 23.855469 27.328125 21.414062 27.328125 C 18.976562 27.328125 17 24.636719 17 24.636719 C 17 24.636719 18.976562 21.929688 21.414062 21.929688 M 21.414062 21.4375 C 18.757812 21.4375 16.6875 24.230469 16.601562 24.347656 L 16.390625 24.640625 L 16.601562 24.929688 C 16.691406 25.046875 18.757812 27.816406 21.414062 27.816406 C 24.074219 27.816406 26.140625 25.046875 26.226562 24.929688 L 26.4375 24.640625 L 26.226562 24.347656 C 26.140625 24.230469 24.074219 21.4375 21.414062 21.4375 Z M 21.414062 21.4375 "/>
<path style=" stroke:none;fill-rule:nonzero;fill:rgb(0%,67.450982%,75.686276%);fill-opacity:1;" d="M 19.273438 24.6875 C 19.273438 23.476562 20.253906 22.5 21.460938 22.5 C 22.667969 22.5 23.648438 23.476562 23.648438 24.6875 C 23.648438 25.894531 22.667969 26.875 21.460938 26.875 C 20.253906 26.875 19.273438 25.894531 19.273438 24.6875 Z M 19.273438 24.6875 "/>
<path style=" stroke:none;fill-rule:nonzero;fill:rgb(0%,37.64706%,39.215687%);fill-opacity:1;" d="M 20.523438 24.6875 C 20.523438 24.167969 20.941406 23.75 21.460938 23.75 C 21.976562 23.75 22.398438 24.167969 22.398438 24.6875 C 22.398438 25.207031 21.976562 25.625 21.460938 25.625 C 20.941406 25.625 20.523438 25.207031 20.523438 24.6875 Z M 20.523438 24.6875 "/>
<path style=" stroke:none;fill-rule:nonzero;fill:rgb(56.470591%,64.313728%,68.235296%);fill-opacity:1;" d="M 17.050781 24.6875 C 17.128906 24.601562 19.070312 22.5 21.460938 22.5 C 23.847656 22.5 25.789062 24.601562 25.867188 24.6875 L 27.550781 24.6875 L 26.804688 23.859375 C 26.707031 23.753906 24.421875 21.25 21.460938 21.25 C 18.496094 21.25 16.210938 23.753906 16.113281 23.859375 L 15.367188 24.6875 Z M 17.050781 24.6875 "/>
</g>
</svg>
