<?xml version="1.0" encoding="UTF-8"?>
<svg xmlns="http://www.w3.org/2000/svg" xmlns:xlink="http://www.w3.org/1999/xlink" viewBox="0 0 40 40" width="40px" height="40px">
<g id="surface20146160">
<path style=" stroke:none;fill-rule:nonzero;fill:rgb(96.078432%,96.078432%,96.078432%);fill-opacity:1;" d="M 20 37 C 10.609375 37 3 29.390625 3 20 C 3 10.609375 10.609375 3 20 3 C 29.390625 3 37 10.609375 37 20 C 37 29.390625 29.390625 37 20 37 Z M 20 37 "/>
<path style=" stroke:none;fill-rule:nonzero;fill:rgb(69.01961%,74.509805%,77.254903%);fill-opacity:1;" d="M 24.148438 8.75 C 23.445312 8.75 22.71875 9.289062 22.179688 9.621094 C 21.132812 10.261719 19.960938 10.183594 18.765625 10.183594 C 18.46875 10.183594 18.167969 10.167969 17.867188 10.140625 C 17.261719 10.078125 16.566406 10 15.886719 10 C 15.550781 10 15.226562 10.015625 14.914062 10.066406 C 13.097656 10.351562 13.074219 12.378906 11.929688 13.457031 C 11.378906 13.972656 10.804688 14.226562 10.621094 15 C 10.4375 15.769531 10.734375 16.71875 10.816406 17.464844 C 10.90625 18.238281 11.035156 18.984375 10.703125 19.699219 C 10.378906 20.398438 9.769531 20.894531 9.519531 21.667969 C 9.183594 22.71875 9.578125 23.671875 9.78125 24.699219 C 9.972656 25.660156 9.78125 26.226562 9.667969 27.15625 C 9.472656 28.707031 10.238281 29.589844 11.757812 29.886719 C 12.25 29.984375 12.761719 30.09375 13.25 30.164062 C 13.6875 30.226562 14.261719 30.101562 14.640625 30.390625 C 15.085938 30.722656 14.851562 31.21875 15.535156 31.246094 C 15.625 31.25 15.714844 31.25 15.804688 31.25 C 17.625 31.25 19.152344 30.585938 20.910156 30.210938 C 21.417969 30.105469 22.007812 30.019531 22.523438 29.890625 C 23.648438 29.613281 24.78125 29.539062 25.914062 29.328125 C 26.945312 29.136719 27.589844 28.816406 28.105469 27.890625 C 28.671875 26.875 29.929688 26.738281 30.332031 25.617188 C 30.625 24.800781 30.597656 23.921875 30.5 23.023438 C 30.402344 22.121094 30.148438 21.730469 29.765625 20.964844 C 29.324219 20.082031 29.839844 19.910156 30.277344 19.214844 C 30.550781 18.78125 30.820312 18.074219 30.695312 17.554688 C 30.613281 17.210938 30.453125 16.734375 30.257812 16.4375 C 30.113281 16.21875 29.859375 16.113281 29.765625 15.847656 C 29.609375 15.402344 29.949219 14.867188 29.929688 14.40625 C 29.886719 13.539062 29.308594 13.257812 28.625 12.96875 C 27.722656 12.585938 27.460938 12.183594 27.554688 11.261719 C 27.726562 9.53125 26.117188 9.289062 24.765625 8.910156 C 24.566406 8.796875 24.359375 8.75 24.148438 8.75 Z M 24.148438 8.75 "/>
<path style=" stroke:none;fill-rule:nonzero;fill:rgb(37.64706%,49.019608%,54.509807%);fill-opacity:1;" d="M 30.332031 25.617188 C 30.625 24.800781 30.597656 23.921875 30.5 23.023438 C 30.402344 22.121094 30.148438 21.730469 29.765625 20.964844 C 29.324219 20.082031 29.839844 19.910156 30.277344 19.214844 C 30.550781 18.78125 30.820312 18.074219 30.695312 17.554688 C 30.613281 17.210938 30.453125 16.734375 30.257812 16.4375 C 30.113281 16.21875 29.859375 16.113281 29.765625 15.847656 C 29.609375 15.402344 29.949219 14.867188 29.929688 14.40625 C 29.886719 13.539062 29.308594 13.257812 28.625 12.96875 C 27.722656 12.585938 27.460938 12.183594 27.554688 11.261719 C 27.726562 9.53125 26.117188 9.289062 24.765625 8.910156 C 24.660156 8.851562 24.554688 8.8125 24.445312 8.785156 C 25.640625 9.464844 25.796875 12.0625 25.722656 12.949219 C 25.679688 13.433594 25.480469 13.824219 25.53125 14.355469 C 25.578125 14.851562 25.78125 15.261719 25.785156 15.765625 C 25.792969 16.953125 25.242188 17.664062 25.644531 18.847656 C 25.996094 19.902344 26.148438 20.738281 24.890625 21.285156 C 24.433594 21.484375 23.9375 21.519531 23.527344 21.761719 C 22.992188 22.078125 22.886719 22.234375 22.265625 22.355469 C 21.316406 22.546875 20.425781 23.019531 20.433594 24.097656 C 20.441406 24.683594 20.621094 24.914062 20.246094 25.394531 C 19.957031 25.769531 19.445312 26.28125 18.949219 26.332031 C 18.570312 26.375 18.414062 26.0625 18.078125 25.953125 C 17.675781 25.824219 17.296875 25.972656 16.953125 26.179688 C 15.800781 26.859375 12.046875 28.632812 10.648438 27.761719 C 10.226562 27.5 9.960938 27.140625 9.722656 26.769531 C 9.703125 26.894531 9.683594 27.019531 9.667969 27.15625 C 9.472656 28.707031 10.238281 29.589844 11.757812 29.886719 C 12.25 29.984375 12.761719 30.09375 13.25 30.164062 C 13.6875 30.226562 14.261719 30.101562 14.640625 30.390625 C 15.089844 30.722656 14.851562 31.21875 15.535156 31.246094 C 15.625 31.25 15.714844 31.25 15.804688 31.25 C 17.625 31.25 19.152344 30.585938 20.910156 30.210938 C 21.417969 30.105469 22.007812 30.019531 22.523438 29.890625 C 23.648438 29.613281 24.78125 29.539062 25.914062 29.328125 C 26.945312 29.136719 27.589844 28.816406 28.105469 27.890625 C 28.671875 26.875 29.929688 26.738281 30.332031 25.617188 Z M 30.332031 25.617188 "/>
<path style=" stroke:none;fill-rule:nonzero;fill:rgb(37.64706%,49.019608%,54.509807%);fill-opacity:1;" d="M 18.714844 16.101562 C 18.703125 15.832031 18.890625 15.300781 19.074219 15.109375 C 19.375 14.800781 19.910156 14.910156 20.269531 14.65625 C 20.65625 14.386719 22.226562 13.191406 22.570312 13.980469 C 22.820312 14.546875 22.214844 15.042969 22.773438 15.53125 C 23.035156 15.761719 23.265625 15.765625 23.164062 16.148438 C 23.097656 16.40625 22.816406 16.632812 22.800781 16.902344 C 22.785156 17.15625 23.078125 17.316406 23.078125 17.53125 C 23.082031 17.90625 22.585938 17.972656 22.335938 18.109375 C 21.90625 18.347656 21.460938 18.679688 21.121094 19.03125 C 20.769531 19.394531 20.472656 19.789062 19.90625 19.761719 C 18.757812 19.703125 19.257812 18.332031 19.164062 17.609375 C 19.09375 17.089844 18.730469 16.640625 18.714844 16.101562 Z M 14.148438 21.199219 C 14.054688 21.0625 13.972656 20.71875 14.003906 20.558594 C 14.054688 20.292969 14.375 20.171875 14.476562 19.917969 C 14.589844 19.644531 15.007812 18.484375 15.457031 18.78125 C 15.777344 18.996094 15.625 19.457031 16.085938 19.527344 C 16.304688 19.558594 16.425781 19.480469 16.5 19.71875 C 16.554688 19.878906 16.484375 20.089844 16.566406 20.234375 C 16.644531 20.375 16.851562 20.359375 16.925781 20.472656 C 17.050781 20.667969 16.816406 20.871094 16.730469 21.027344 C 16.585938 21.300781 16.464844 21.621094 16.40625 21.921875 C 16.34375 22.234375 16.324219 22.539062 16.015625 22.71875 C 15.394531 23.074219 15.191406 22.1875 14.898438 21.839844 C 14.683594 21.585938 14.339844 21.476562 14.148438 21.199219 Z M 14.148438 21.199219 "/>
</g>
</svg>
