<?xml version="1.0" encoding="UTF-8"?>
<svg xmlns="http://www.w3.org/2000/svg" xmlns:xlink="http://www.w3.org/1999/xlink" viewBox="0 0 40 40" width="40px" height="40px">
<g id="surface20297197">
<path style=" stroke:none;fill-rule:nonzero;fill:rgb(94.901961%,94.901961%,94.901961%);fill-opacity:1;" d="M 20 37 C 10.609375 37 3 29.390625 3 20 C 3 10.609375 10.609375 3 20 3 C 29.390625 3 37 10.609375 37 20 C 37 29.390625 29.390625 37 20 37 Z M 20 37 "/>
<path style=" stroke:none;fill-rule:nonzero;fill:rgb(100%,87.843138%,50.980395%);fill-opacity:1;" d="M 20 7.5 C 13.097656 7.5 7.5 13.097656 7.5 20 C 7.5 26.902344 13.097656 32.5 20 32.5 C 26.902344 32.5 32.5 26.902344 32.5 20 C 32.5 13.097656 26.902344 7.5 20 7.5 Z M 20 7.5 "/>
<path style=" stroke:none;fill-rule:nonzero;fill:rgb(100%,79.215688%,15.686275%);fill-opacity:1;" d="M 13.4375 20 C 12.574219 20 11.875 20.699219 11.875 21.5625 C 11.875 22.425781 12.574219 23.125 13.4375 23.125 C 14.300781 23.125 15 22.425781 15 21.5625 C 15 20.699219 14.300781 20 13.4375 20 Z M 18.125 11.875 C 16.746094 11.875 15.625 12.996094 15.625 14.375 C 15.625 15.753906 16.746094 16.875 18.125 16.875 C 19.503906 16.875 20.625 15.753906 20.625 14.375 C 20.625 12.996094 19.503906 11.875 18.125 11.875 Z M 19.0625 23.125 C 17.855469 23.125 16.875 24.105469 16.875 25.3125 C 16.875 26.519531 17.855469 27.5 19.0625 27.5 C 20.269531 27.5 21.25 26.519531 21.25 25.3125 C 21.25 24.105469 20.269531 23.125 19.0625 23.125 Z M 19.0625 23.125 "/>
<path style=" stroke:none;fill-rule:nonzero;fill:rgb(89.803922%,69.803923%,13.725491%);fill-opacity:1;" d="M 19.0625 16.5625 C 17.855469 16.5625 16.875 15.582031 16.875 14.375 C 16.875 13.167969 17.855469 12.1875 19.0625 12.1875 C 19.167969 12.1875 19.265625 12.203125 19.367188 12.21875 C 19 12.003906 18.582031 11.875 18.125 11.875 C 16.746094 11.875 15.625 12.996094 15.625 14.375 C 15.625 15.753906 16.746094 16.875 18.125 16.875 C 18.582031 16.875 19 16.746094 19.367188 16.53125 C 19.265625 16.546875 19.167969 16.5625 19.0625 16.5625 Z M 13.125 21.5625 C 13.125 20.921875 13.511719 20.375 14.0625 20.132812 C 13.871094 20.046875 13.660156 20 13.4375 20 C 12.574219 20 11.875 20.699219 11.875 21.5625 C 11.875 22.425781 12.574219 23.125 13.4375 23.125 C 13.660156 23.125 13.871094 23.078125 14.0625 22.992188 C 13.511719 22.75 13.125 22.203125 13.125 21.5625 Z M 18.125 25.3125 C 18.125 24.324219 18.785156 23.496094 19.6875 23.226562 C 19.488281 23.167969 19.28125 23.125 19.0625 23.125 C 17.855469 23.125 16.875 24.105469 16.875 25.3125 C 16.875 26.519531 17.855469 27.5 19.0625 27.5 C 19.28125 27.5 19.488281 27.457031 19.6875 27.398438 C 18.785156 27.128906 18.125 26.300781 18.125 25.3125 Z M 18.125 25.3125 "/>
<path style=" stroke:none;fill-rule:nonzero;fill:rgb(36.862746%,20.784314%,69.411767%);fill-opacity:1;" d="M 20 7.5 L 20 32.5 C 26.902344 32.5 32.5 26.902344 32.5 20 C 32.5 13.097656 26.902344 7.5 20 7.5 Z M 20 7.5 "/>
<path style=" stroke:none;fill-rule:nonzero;fill:rgb(58.431375%,45.882353%,80.392158%);fill-opacity:1;" d="M 26.875 24.6875 C 26.875 25.328125 26.488281 25.875 25.9375 26.117188 C 26.128906 26.203125 26.339844 26.25 26.5625 26.25 C 27.425781 26.25 28.125 25.550781 28.125 24.6875 C 28.125 23.824219 27.425781 23.125 26.5625 23.125 C 26.339844 23.125 26.128906 23.171875 25.9375 23.257812 C 26.488281 23.5 26.875 24.046875 26.875 24.6875 Z M 26.875 24.6875 "/>
</g>
</svg>
