<?xml version="1.0" encoding="UTF-8"?>
<svg xmlns="http://www.w3.org/2000/svg" xmlns:xlink="http://www.w3.org/1999/xlink" viewBox="0 0 40 40" width="40px" height="40px">
<g id="surface20287112">
<path style=" stroke:none;fill-rule:nonzero;fill:rgb(94.901961%,94.901961%,94.901961%);fill-opacity:1;" d="M 20 37 C 10.609375 37 3 29.390625 3 20 C 3 10.609375 10.609375 3 20 3 C 29.390625 3 37 10.609375 37 20 C 37 29.390625 29.390625 37 20 37 Z M 20 37 "/>
<path style=" stroke:none;fill-rule:nonzero;fill:rgb(47.450981%,47.450981%,47.450981%);fill-opacity:1;" d="M 16.296875 25 L 8.890625 25 L 9.042969 24.535156 L 14.574219 20.832031 C 14.773438 20.832031 14.949219 20.960938 15.011719 21.148438 Z M 23.703125 25 L 16.296875 25 L 16.449219 24.535156 L 21.980469 20.832031 C 22.179688 20.832031 22.355469 20.960938 22.421875 21.148438 Z M 31.109375 25 L 23.703125 25 L 23.859375 24.535156 L 29.386719 20.832031 C 29.585938 20.832031 29.765625 20.960938 29.828125 21.148438 Z M 27.40625 20.832031 L 20 20.832031 L 20.152344 20.371094 L 25.683594 16.667969 C 25.882812 16.667969 26.0625 16.792969 26.125 16.984375 Z M 23.703125 16.667969 L 16.296875 16.667969 L 16.449219 16.203125 L 21.980469 12.5 C 22.179688 12.5 22.355469 12.628906 22.421875 12.816406 Z M 20 20.832031 L 12.59375 20.832031 L 12.746094 20.371094 L 18.277344 16.667969 C 18.476562 16.667969 18.652344 16.792969 18.714844 16.984375 Z M 20 20.832031 "/>
<path style=" stroke:none;fill-rule:nonzero;fill:rgb(74.117649%,74.117649%,74.117649%);fill-opacity:1;" d="M 14.984375 21.082031 L 8.890625 25 L 10.171875 21.148438 C 10.234375 20.964844 10.410156 20.832031 10.609375 20.832031 L 14.574219 20.832031 C 14.75 20.832031 14.902344 20.929688 14.984375 21.082031 Z M 22.394531 21.082031 L 16.296875 25 L 17.578125 21.148438 C 17.644531 20.964844 17.820312 20.832031 18.019531 20.832031 L 21.980469 20.832031 C 22.15625 20.832031 22.308594 20.929688 22.394531 21.082031 Z M 29.800781 21.082031 L 23.703125 25 L 24.984375 21.148438 C 25.050781 20.964844 25.226562 20.832031 25.425781 20.832031 L 29.390625 20.832031 C 29.566406 20.832031 29.71875 20.929688 29.800781 21.082031 Z M 26.097656 16.917969 L 20 20.832031 L 21.28125 16.980469 C 21.347656 16.796875 21.523438 16.667969 21.722656 16.667969 L 25.683594 16.667969 C 25.859375 16.667969 26.015625 16.765625 26.097656 16.917969 Z M 22.394531 12.75 L 16.296875 16.667969 L 17.578125 12.816406 C 17.644531 12.628906 17.820312 12.5 18.019531 12.5 L 21.980469 12.5 C 22.15625 12.5 22.308594 12.597656 22.394531 12.75 Z M 18.691406 16.917969 L 12.59375 20.832031 L 13.875 16.980469 C 13.941406 16.796875 14.117188 16.667969 14.316406 16.667969 L 18.277344 16.667969 C 18.453125 16.667969 18.605469 16.765625 18.691406 16.917969 Z M 18.691406 16.917969 "/>
</g>
</svg>
