<?xml version="1.0" encoding="UTF-8"?>
<svg xmlns="http://www.w3.org/2000/svg" xmlns:xlink="http://www.w3.org/1999/xlink" viewBox="0 0 40 40" width="40px" height="40px">
<g id="surface33436192">
<path style=" stroke:none;fill-rule:nonzero;fill:rgb(94.901961%,94.901961%,94.901961%);fill-opacity:1;" d="M 20 37 C 10.609375 37 3 29.390625 3 20 C 3 10.609375 10.609375 3 20 3 C 29.390625 3 37 10.609375 37 20 C 37 29.390625 29.390625 37 20 37 Z M 20 37 "/>
<path style=" stroke:none;fill-rule:nonzero;fill:rgb(61.176473%,15.294118%,69.01961%);fill-opacity:1;" d="M 17.5 28.75 L 21.25 28.75 L 21.25 32.5 L 17.5 32.5 Z M 20 7.5 C 17.40625 7.5 12.5 9.066406 12.5 15 L 16.25 15 C 16.25 11.519531 19.121094 11.25 20 11.25 C 20.878906 11.25 23.75 11.519531 23.75 15 C 23.75 16.15625 22.953125 16.921875 21.542969 18.183594 C 19.835938 19.707031 17.5 21.796875 17.5 25.625 L 17.5 26.875 L 21.25 26.875 L 21.25 25.625 C 21.25 23.578125 22.3125 22.527344 24.042969 20.976562 C 25.582031 19.601562 27.5 17.890625 27.5 15 C 27.5 9.066406 22.59375 7.5 20 7.5 Z M 20 7.5 "/>
</g>
</svg>
