<?xml version="1.0" encoding="UTF-8"?>
<svg xmlns="http://www.w3.org/2000/svg" xmlns:xlink="http://www.w3.org/1999/xlink" viewBox="0 0 40 40" width="40px" height="40px">
<g id="surface20100060">
<path style=" stroke:none;fill-rule:nonzero;fill:rgb(96.078432%,96.078432%,96.078432%);fill-opacity:1;" d="M 20 36 C 11.164062 36 4 28.835938 4 20 C 4 11.164062 11.164062 4 20 4 C 28.835938 4 36 11.164062 36 20 C 36 28.835938 28.835938 36 20 36 Z M 20 36 "/>
<path style=" stroke:none;fill-rule:nonzero;fill:rgb(0%,72.156864%,83.137256%);fill-opacity:1;" d="M 8.242188 27.839844 L 14.960938 26.160156 L 20 27.277344 L 25.597656 26.160156 L 31.757812 27.839844 L 31.757812 18.878906 L 30.636719 18.878906 L 30.636719 14.960938 L 27.277344 13.839844 L 24.480469 14.960938 L 18.320312 12.160156 L 11.601562 18.320312 L 8.242188 18.878906 Z M 8.242188 27.839844 "/>
<path style=" stroke:none;fill-rule:nonzero;fill:rgb(50.196081%,87.058824%,91.764706%);fill-opacity:1;" d="M 22.800781 17.5625 C 23.085938 16.738281 23.417969 15.933594 23.902344 15.183594 C 24.394531 14.445312 24.984375 13.71875 25.914062 13.191406 C 26.144531 13.058594 26.40625 12.949219 26.695312 12.871094 C 26.832031 12.832031 26.988281 12.800781 27.140625 12.785156 C 27.300781 12.765625 27.472656 12.761719 27.554688 12.765625 C 28.089844 12.769531 28.585938 12.832031 29.105469 13 C 29.613281 13.167969 30.128906 13.425781 30.570312 13.824219 C 31.007812 14.21875 31.363281 14.742188 31.546875 15.296875 C 31.734375 15.84375 31.785156 16.425781 31.746094 16.917969 C 31.707031 17.460938 31.585938 18.011719 31.277344 18.542969 C 30.980469 19.066406 30.488281 19.511719 29.953125 19.734375 C 29.414062 19.96875 28.878906 20.046875 28.285156 19.96875 C 27.789062 19.890625 27.300781 19.746094 26.835938 19.441406 C 26.371094 19.152344 25.976562 18.582031 25.945312 18.019531 C 25.929688 17.882812 25.933594 17.75 25.945312 17.621094 C 25.953125 17.542969 25.964844 17.511719 25.972656 17.453125 L 26.011719 17.269531 C 26.0625 17.039062 26.148438 16.804688 26.277344 16.59375 C 26.40625 16.382812 26.578125 16.1875 26.800781 16.078125 C 27.015625 15.964844 27.253906 15.925781 27.46875 15.976562 C 26.59375 16.269531 26.71875 17.25 26.886719 17.835938 C 27 18.101562 27.179688 18.246094 27.453125 18.34375 C 27.71875 18.445312 28.0625 18.484375 28.394531 18.472656 C 28.636719 18.46875 28.945312 18.332031 29.148438 18.191406 C 29.355469 18.035156 29.484375 17.863281 29.566406 17.648438 C 29.644531 17.433594 29.695312 17.148438 29.683594 16.859375 C 29.683594 16.523438 29.632812 16.253906 29.539062 16.019531 C 29.363281 15.5625 28.996094 15.25 28.429688 15.042969 C 28.15625 14.949219 27.816406 14.882812 27.519531 14.863281 L 27.308594 14.855469 C 27.253906 14.859375 27.199219 14.851562 27.140625 14.863281 C 27.019531 14.871094 26.882812 14.910156 26.738281 14.957031 C 26.160156 15.152344 25.5 15.585938 24.859375 16.0625 C 24.199219 16.53125 23.566406 17.097656 22.800781 17.5625 Z M 31.757812 23.359375 C 30.714844 23.605469 29.582031 23.332031 28.589844 23.054688 C 27.582031 22.769531 26.648438 22.492188 25.804688 22.542969 C 25.367188 22.558594 25.011719 22.65625 24.644531 22.804688 C 24.285156 22.964844 23.910156 23.203125 23.445312 23.480469 C 22.988281 23.765625 22.425781 24.042969 21.824219 24.222656 C 21.21875 24.40625 20.597656 24.46875 20 24.480469 C 19.730469 24.476562 19.390625 24.457031 19.089844 24.417969 C 18.785156 24.378906 18.476562 24.316406 18.175781 24.226562 C 17.574219 24.042969 17.011719 23.765625 16.554688 23.484375 C 15.617188 22.910156 15.085938 22.574219 14.179688 22.546875 C 13.371094 22.496094 12.410156 22.773438 11.414062 23.058594 C 10.417969 23.332031 9.285156 23.605469 8.242188 23.359375 C 9.277344 23.121094 10.113281 22.617188 10.996094 22.082031 C 11.878906 21.558594 12.847656 20.988281 14.113281 20.828125 C 14.683594 20.753906 15.371094 20.777344 15.980469 20.960938 C 16.597656 21.132812 17.121094 21.414062 17.558594 21.625 C 18.425781 22.066406 19.113281 22.242188 20 22.238281 C 20.886719 22.246094 21.574219 22.066406 22.441406 21.628906 C 22.878906 21.417969 23.402344 21.136719 24.019531 20.964844 C 24.628906 20.78125 25.316406 20.757812 25.902344 20.832031 C 27.132812 20.988281 28.125 21.5625 29.003906 22.082031 C 29.886719 22.621094 30.722656 23.121094 31.757812 23.359375 Z M 8.242188 27.839844 C 9.277344 27.601562 10.113281 27.097656 10.996094 26.5625 C 11.875 26.039062 12.867188 25.46875 14.097656 25.3125 C 14.6875 25.238281 15.371094 25.261719 15.980469 25.441406 C 16.597656 25.617188 17.121094 25.894531 17.558594 26.109375 C 18.425781 26.546875 19.113281 26.722656 20 26.71875 C 20.886719 26.722656 21.574219 26.542969 22.441406 26.105469 C 22.878906 25.894531 23.402344 25.613281 24.019531 25.441406 C 24.628906 25.257812 25.316406 25.234375 25.886719 25.304688 C 27.152344 25.464844 28.121094 26.039062 29.003906 26.558594 C 29.886719 27.097656 30.722656 27.597656 31.757812 27.839844 C 30.714844 28.085938 29.582031 27.8125 28.585938 27.535156 C 27.589844 27.253906 26.632812 26.972656 25.820312 27.027344 C 24.914062 27.054688 24.386719 27.390625 23.445312 27.964844 C 22.988281 28.246094 22.425781 28.523438 21.824219 28.703125 C 21.523438 28.792969 21.214844 28.855469 20.910156 28.894531 C 20.609375 28.9375 20.269531 28.957031 20 28.957031 C 19.40625 28.949219 18.78125 28.886719 18.175781 28.703125 C 17.574219 28.519531 17.011719 28.242188 16.554688 27.960938 C 16.089844 27.683594 15.714844 27.441406 15.355469 27.285156 C 14.988281 27.132812 14.632812 27.039062 14.195312 27.023438 C 13.351562 26.972656 12.417969 27.25 11.410156 27.535156 C 10.417969 27.808594 9.285156 28.082031 8.242188 27.839844 Z M 8.242188 27.839844 "/>
<path style=" stroke:none;fill-rule:nonzero;fill:rgb(50.196081%,87.058824%,91.764706%);fill-opacity:1;" d="M 8.242188 18.878906 C 9.585938 18.660156 11.480469 17.566406 12.371094 16.539062 C 12.371094 16.539062 15.519531 11.042969 18.878906 11.042969 C 22.800781 11.042969 23.78125 13.125 24.121094 13.929688 C 24.453125 14.730469 24.527344 15.597656 24.453125 16.339844 C 24.40625 16.796875 24.316406 17.175781 24.148438 17.597656 C 23.980469 18.003906 23.730469 18.390625 23.417969 18.71875 C 22.796875 19.386719 21.964844 19.746094 21.179688 19.902344 C 20.984375 19.941406 20.785156 19.96875 20.582031 19.984375 C 20.371094 19.996094 20.207031 20.007812 19.929688 19.988281 C 19.519531 19.949219 19.148438 19.859375 18.769531 19.726562 C 18.394531 19.59375 18.019531 19.410156 17.6875 19.144531 C 17.351562 18.882812 17.066406 18.523438 16.910156 18.121094 C 16.761719 17.71875 16.738281 17.296875 16.789062 16.925781 C 16.835938 16.574219 16.921875 16.195312 17.101562 15.863281 C 17.277344 15.527344 17.546875 15.226562 17.871094 15.042969 C 18.203125 14.867188 18.570312 14.789062 18.910156 14.835938 C 18.234375 15 17.789062 15.519531 17.695312 16.078125 C 17.644531 16.363281 17.636719 16.644531 17.671875 16.945312 C 17.699219 17.234375 17.777344 17.476562 17.90625 17.675781 C 18.152344 18.066406 18.617188 18.289062 19.164062 18.386719 C 19.433594 18.4375 19.730469 18.453125 19.996094 18.445312 C 20.054688 18.441406 20.226562 18.414062 20.347656 18.382812 C 20.480469 18.351562 20.613281 18.308594 20.742188 18.265625 C 21.800781 17.902344 22.304688 17.175781 22.324219 16.230469 C 22.363281 15.109375 21.679688 13.28125 18.878906 13.28125 C 17.199219 13.28125 13.300781 17.300781 13.300781 17.300781 C 11.601562 18.878906 9.597656 19.101562 8.242188 18.878906 Z M 8.242188 18.878906 "/>
</g>
</svg>
